<?xml version="1.0" encoding="UTF-8" standalone="no"?>
<!-- Created with Inkscape (http://www.inkscape.org/) -->

<svg
   version="1.1"
   id="svg2"
   width="632.57544"
   height="210.6329"
   viewBox="0 0 632.57544 210.6329"
   sodipodi:docname="logo.svg"
   inkscape:version="1.1.1 (3bf5ae0d25, 2021-09-20)"
   xmlns:inkscape="http://www.inkscape.org/namespaces/inkscape"
   xmlns:sodipodi="http://sodipodi.sourceforge.net/DTD/sodipodi-0.dtd"
   xmlns="http://www.w3.org/2000/svg"
   xmlns:svg="http://www.w3.org/2000/svg">
  <defs
     id="defs6" />
  <sodipodi:namedview
     id="namedview4"
     pagecolor="#ffffff"
     bordercolor="#666666"
     borderopacity="1.0"
     inkscape:pageshadow="2"
     inkscape:pageopacity="0.0"
     inkscape:pagecheckerboard="0"
     showgrid="false"
     inkscape:zoom="1.8555103"
     inkscape:cx="323.0917"
     inkscape:cy="131.76968"
     inkscape:window-width="1366"
     inkscape:window-height="695"
     inkscape:window-x="0"
     inkscape:window-y="0"
     inkscape:window-maximized="1"
     inkscape:current-layer="g8"
     fit-margin-top="0"
     fit-margin-left="0"
     fit-margin-right="0"
     fit-margin-bottom="0" />
  <g
     inkscape:groupmode="layer"
     inkscape:label="Image"
     id="g8"
     transform="translate(22.768424,-347.16429)">
    <g
       id="g228"
       transform="translate(-23.103758,347.16429)">
      <path
         style="fill:#11e8e6;stroke-width:1.35021"
         d="m 75.013912,203.72735 c -3.421053,-4.06568 -3.667959,-5.08783 -2.882991,-11.93502 1.879886,-16.39804 2.298764,-30.72452 1.055862,-36.11264 -0.98735,-4.28026 -0.850423,-6.55257 0.558495,-9.26826 2.47968,-4.77959 2.365349,-6.33993 -0.865824,-11.81636 -2.323386,-3.93784 -2.493893,-5.21251 -1.13916,-8.516 0.876261,-2.13674 1.460036,-4.94827 1.297279,-6.24785 -0.212232,-1.69462 0.650908,-2.36287 3.051959,-2.36287 1.841335,0 3.62021,-0.7595 3.953054,-1.68777 0.872767,-2.43405 -1.48702,-6.4135 -3.80317,-6.4135 -1.087796,0 -1.977811,-0.60759 -1.977811,-1.35021 0,-1.75306 3.642287,-1.75306 4.725739,0 1.136037,1.83815 6.529049,1.70724 8.441188,-0.2049 1.084016,-1.08401 9.244054,-1.46976 26.936708,-1.27335 28.38687,0.31512 30.15966,0.80548 33.79117,9.34699 1.91525,4.50478 1.90898,6.13144 -0.0686,17.78527 -2.57952,15.20155 -4.50798,17.55274 -14.39681,17.55274 -3.53744,0 -9.02418,0.91467 -12.19274,2.03261 -3.96961,1.40056 -6.27588,1.6053 -7.41677,0.65846 -1.15821,-0.96123 -2.16101,-0.76536 -3.33717,0.65184 -1.36789,1.64819 -1.27685,2.18124 0.4882,2.85854 1.1933,0.45791 1.8301,1.38193 1.41513,2.05338 -0.41498,0.67144 -0.37055,2.43056 0.0987,3.90915 1.0119,3.18822 5.57357,3.49016 9.36815,0.62009 7.49289,-5.66734 15.73324,1.92025 8.85032,8.14922 -2.39311,2.16573 -3.30386,2.25155 -7.87718,0.74221 -8.23536,-2.71792 -10.2751,-1.70758 -10.77669,5.33793 -0.23736,3.33402 -1.427,7.16181 -2.64366,8.5062 -1.78511,1.97253 -1.89538,2.88519 -0.5713,4.72819 5.82739,8.11112 5.43185,14.35587 -0.99875,15.76826 -2.20587,0.48449 -5.2773,0.17436 -6.90605,-0.69732 -1.700661,-0.91016 -4.996483,-1.20987 -7.842905,-0.71318 -14.830169,2.58776 -14.341274,2.64381 -18.334479,-2.10185 z m 12.159954,-84.17431 c 2.290116,-3.49516 1.679614,-6.13532 -1.418709,-6.13532 -2.68663,0 -6.092708,3.82803 -6.092708,6.84749 0,3.77534 4.873865,3.31324 7.511417,-0.71217 z m 84.506404,85.06269 c -3.97247,-1.88887 -7.95917,-3.43431 -8.85932,-3.43431 -0.90015,0 -2.81451,-1.09727 -4.25411,-2.43838 -2.41792,-2.25248 -2.58332,-4.0796 -2.1696,-23.96625 0.24631,-11.84032 0.55011,-30.13691 0.6751,-40.65909 0.21663,-18.23765 0.38022,-19.2941 3.5025,-22.61809 5.78871,-6.16266 13.13795,-6.84704 23.20426,-2.16084 2.91587,1.35743 4.28085,1.25105 7.88918,-0.6149 4.75811,-2.46051 6.75065,-2.1067 3.46984,0.61613 -2.68201,2.22588 -2.59953,4.6961 0.30492,9.13037 1.81899,2.77709 2.26304,5.79634 1.92917,13.11706 -0.61561,13.49801 -0.59836,17.74461 0.16677,41.04966 0.50666,15.43233 0.2246,21.83034 -1.1024,25.00631 -4.20249,10.05798 -13.03515,12.54559 -24.75631,6.97233 z m -7.02229,-22.93072 c 2.28131,-2.74881 1.24692,-9.41449 -1.54303,-9.9433 -1.67454,-0.31741 -2.52282,0.82966 -3.1718,4.28902 -1.28964,6.8744 1.21218,9.87473 4.71483,5.65428 z m 26.73482,-61.17798 c 0.73824,-2.21721 -3.49229,-3.79995 -5.30684,-1.9854 -0.77651,0.77651 -0.98282,2.10602 -0.45845,2.95446 1.19298,1.93029 5.01376,1.28807 5.76529,-0.96906 z m 38.14307,85.944 c -2.59916,-0.66277 -6.70042,-0.87683 -9.11392,-0.47571 -3.75817,0.62461 -4.38819,0.33283 -4.38819,-2.0323 0,-3.73224 -5.38627,-3.78406 -6.35983,-0.0612 -0.3884,1.48523 -1.65262,2.70042 -2.80939,2.70042 -1.62117,0 -1.37878,-0.7711 1.05763,-3.36454 2.07932,-2.21333 3.11327,-4.86975 3.02185,-7.76371 -0.25017,-7.91936 0.81377,-10.47512 4.36068,-10.47512 1.79856,0 3.64562,0.60759 4.10459,1.35021 1.38399,2.23934 8.20532,1.51874 10.59242,-1.11898 4.69297,-5.18566 2.07114,-11.05205 -6.99192,-15.64466 -7.79418,-3.9496 -14.71345,-10.66548 -17.36575,-16.85528 -1.0816,-2.52415 -1.98865,-8.41953 -2.01565,-13.10085 -0.12355,-21.41005 15.38603,-33.53159 42.78512,-33.43885 13.49513,0.0457 19.28081,2.04546 30.37975,10.50058 13.97669,10.64738 16.94967,16.50261 13.27775,26.15026 -2.87631,7.55722 -9.12962,11.10272 -19.58232,11.10272 -7.74678,0 -8.75138,0.31983 -10.06582,3.20473 -1.54316,3.38686 0.27931,8.94716 2.93255,8.94716 0.72572,0 3.49334,3.3983 6.15029,7.55177 3.70795,5.79646 5.43017,7.39504 7.40939,6.87747 3.51807,-0.92 3.2809,1.60051 -0.27434,2.91568 -1.81534,0.67153 -3.6568,3.43904 -5.06329,7.60956 -2.58463,7.66391 -9.3487,13.79478 -17.23937,15.62555 -6.46266,1.49943 -18.50855,1.39991 -24.80223,-0.20494 z m 30.80698,-54.2263 c 0.33973,-2.94328 -0.12568,-3.70153 -2.27188,-3.70153 -2.82595,0 -5.05725,4.32229 -3.51746,6.81373 1.64715,2.66514 5.35241,0.6733 5.78934,-3.1122 z m 13.07488,-33.40617 c 0,-1.09358 -1.06329,-2.19311 -2.36287,-2.44338 -1.65786,-0.31928 -2.36287,0.40976 -2.36287,2.44338 0,2.03362 0.70501,2.76265 2.36287,2.44338 1.29958,-0.25028 2.36287,-1.3498 2.36287,-2.44338 z m 37.22677,86.83047 c -9.56945,-5.04808 -10.20346,-7.16117 -10.38382,-34.60865 -0.0901,-13.69544 0.42193,-25.66783 1.15825,-27.08866 0.88701,-1.71157 0.76469,-5.16068 -0.37314,-10.52244 -2.88877,-13.61247 2.41231,-23.17967 14.91999,-26.92706 4.4076,-1.32055 6.28772,-1.20768 11.21252,0.67312 7.65349,2.9229 11.15886,6.7784 13.23899,14.56143 1.43086,5.35367 1.30796,8.3329 -0.82279,19.94583 l -2.50491,13.65209 2.84046,3.84192 c 1.97529,2.67173 2.41067,4.2717 1.42939,5.25298 -0.77609,0.77609 -1.00283,2.07159 -0.50387,2.87892 0.97646,1.57993 8.62034,1.98901 12.11417,0.64829 2.96613,-1.1382 2.673,-5.57309 -0.49929,-7.55423 -2.59607,-1.62127 -2.59107,-1.71632 0.33755,-6.42494 2.69837,-4.33841 2.9448,-6.31962 2.6712,-21.47574 -0.17563,-9.72965 0.29226,-17.80565 1.12134,-19.35481 2.51661,-4.70231 9.54724,-6.68899 17.32122,-4.89454 5.02731,1.16044 7.65297,1.17656 10.09918,0.062 8.06781,-3.67594 12.98984,7.95831 10.30292,24.35305 -0.86921,5.30362 -0.75975,11.7379 0.34457,20.25316 2.03846,15.71833 1.94201,33.16014 -0.20527,37.12144 -0.90572,1.67089 -2.79718,3.03797 -4.20325,3.03797 -4.03173,0 -7.05561,3.75054 -5.4471,6.75605 2.92585,5.46701 1.87563,6.15525 -9.7716,6.40357 -7.78268,0.16593 -12.01666,-0.35102 -14.11023,-1.72276 -3.06266,-2.00674 -5.80453,-9.36608 -5.81795,-15.61577 -0.009,-4.12775 -3.77117,-7.97299 -7.80101,-7.97299 -3.3551,0 -7.05885,4.72924 -7.05885,9.01327 0,1.65637 -0.70786,4.56515 -1.57302,6.46398 -1.36288,2.99116 -1.15104,3.9016 1.58557,6.81458 3.56821,3.7982 2.24659,4.60328 -1.69742,1.034 -2.43697,-2.20543 -2.79537,-2.20035 -6.79736,0.0965 -6.37658,3.65965 -15.57828,4.2252 -21.12644,1.29845 z m 48.94924,-25.26387 c 0.91046,-2.37264 -0.17768,-3.50753 -3.36308,-3.50753 -2.41901,0 -3.3671,2.70883 -1.57523,4.5007 1.52841,1.52841 4.17493,0.99615 4.93831,-0.99317 z m -51.0516,-42.54767 c -1.86484,-1.86431 -2.30024,-1.88517 -3.36605,-0.16126 -1.80312,2.91651 1.04843,6.00367 3.59404,3.89099 1.64287,-1.36345 1.61057,-1.89168 -0.22799,-3.72973 z m 110.02327,66.71946 c -3.34177,-1.78942 -7.04508,-3.28096 -8.22955,-3.31451 -1.18449,-0.0336 -3.19078,-1.20709 -4.45845,-2.60784 -2.08975,-2.30914 -2.25947,-6.36099 -1.81876,-43.42007 l 0.48608,-40.87326 4.59646,-3.83731 c 6.11321,-5.10352 11.59698,-5.5573 20.38745,-1.68705 4.49904,1.98083 5.23301,1.97298 9.2394,-0.0988 4.74881,-2.45571 6.73636,-2.09834 3.4587,0.62189 -2.69971,2.24055 -2.60627,3.44265 0.81725,10.51471 2.39266,4.94258 2.69504,7.1102 1.80174,12.91574 -1.20274,7.81649 -1.2166,10.45075 -0.21121,40.16396 0.67152,19.84623 0.54468,21.33357 -2.24312,26.30349 -5.15877,9.19675 -13.22247,10.99694 -23.82599,5.31905 z m -7.0211,-22.54852 c 1.99262,-1.99262 2.13567,-8.70351 0.21091,-9.89309 -2.26716,-1.40118 -5.34171,2.08265 -5.34171,6.05279 0,5.37029 2.0594,6.9117 5.1308,3.8403 z m 26.36167,-61.03255 c 0.91046,-2.37264 -0.17769,-3.50753 -3.36308,-3.50753 -2.41901,0 -3.3671,2.70884 -1.57523,4.5007 1.52841,1.52841 4.17493,0.99616 4.93831,-0.99317 z m 13.64907,83.63241 c -1.82821,-2.79021 -1.91934,-4.10822 -0.56729,-8.20497 1.25804,-3.81194 1.23462,-7.83254 -0.10694,-18.35997 -1.36601,-10.71886 -1.38299,-16.4351 -0.0829,-27.91318 0.89914,-7.93869 1.45773,-19.12403 1.24129,-24.85632 -0.37068,-9.81676 -0.1778,-10.63873 3.31953,-14.14652 5.35938,-5.37542 12.50638,-5.15358 19.04943,0.59127 5.64048,4.95241 8.07839,4.62712 11.26035,-1.50248 1.21935,-2.34889 2.44704,-3.47237 2.76514,-2.53041 0.31465,0.93178 -0.9731,3.53051 -2.86167,5.77496 -3.15628,3.75091 -3.54942,8.05831 -0.73559,8.05831 0.64456,0 5.23925,1.86287 10.21042,4.13971 11.91522,5.45728 15.33099,4.75515 15.33799,-3.15278 0.009,-11.10938 9.24678,-19.25192 18.04491,-15.90688 5.53394,2.104 7.02159,6.76638 4.93468,15.46559 -1.42323,5.93269 -1.43164,9.35397 -0.045,18.26833 1.15263,7.40948 1.40277,16.54192 0.77089,28.1448 -0.73599,13.51456 -0.52202,18.18369 1.00369,21.90199 1.9685,4.79739 1.8712,6.45143 -0.68977,11.7253 -1.94333,4.00198 -7.77482,6.29237 -11.96195,4.69822 -1.80743,-0.68815 -6.30616,-3.74784 -9.99716,-6.79933 -3.69101,-3.05147 -8.58384,-6.4369 -10.87294,-7.52316 -2.28912,-1.08624 -5.28743,-3.21855 -6.6629,-4.73844 -3.18335,-3.51756 -7.05238,-3.54745 -8.1583,-0.0631 -0.4714,1.48524 -1.42888,2.70043 -2.12774,2.70043 -0.69887,0 -0.51791,-1.20538 0.40214,-2.67859 1.38679,-2.22061 1.28012,-3.07129 -0.62382,-4.97523 -2.0094,-2.0094 -2.72833,-2.06558 -5.74843,-0.44927 -1.89849,1.01603 -3.73921,3.25488 -4.09048,4.97521 -0.35127,1.72034 -0.94347,4.60474 -1.31601,6.40979 -0.43166,2.09155 -1.76614,3.43829 -3.67928,3.71308 -1.65107,0.23714 -3.64848,1.73346 -4.43867,3.32514 -3.9738,8.00435 -9.79222,9.67972 -13.57373,3.90842 z m 33.1707,-27.05556 c 0,-1.11392 -0.91139,-2.02531 -2.02532,-2.02531 -1.11392,0 -2.02531,0.91139 -2.02531,2.02531 0,1.11393 0.91139,2.02532 2.02531,2.02532 1.11393,0 2.02532,-0.91139 2.02532,-2.02532 z m 22.69024,-42.83646 c 0.55852,-2.90011 -5.93995,-4.84462 -8.27433,-2.47589 -1.22147,1.23945 -0.97047,2.06865 1.0854,3.58573 3.31331,2.44499 6.60212,1.93726 7.18893,-1.10984 z m 76.55027,71.91691 c -6.85385,-1.49009 -17.37071,-6.00775 -22.51784,-9.67281 -2.90596,-2.06924 -5.14103,-2.61714 -8.2837,-2.03067 -4.02368,0.75088 -4.13328,0.67285 -1.68301,-1.19828 1.44151,-1.10081 3.1124,-2.00147 3.71308,-2.00147 2.60092,0 0.73234,-6.0658 -3.46545,-11.24955 -9.49681,-11.72741 -10.52755,-17.67102 -6.36148,-36.68294 2.86621,-13.08003 3.23644,-16.87764 1.64538,-16.87764 -0.8404,0 -1.528,-0.60759 -1.528,-1.35021 0,-0.74261 1.71342,-1.35021 3.8076,-1.35021 2.34008,0 5.85276,-1.72163 9.11392,-4.4669 13.12079,-11.04517 26.51946,-15.17393 42.66397,-13.14675 20.03609,2.51582 29.55428,12.47921 23.86023,24.97628 -1.75881,3.8602 -2.57337,4.15951 -4.92371,1.80916 -1.27306,-1.27305 -2.10618,-1.15362 -3.80534,0.54554 -1.19649,1.19649 -1.76389,2.84134 -1.26088,3.65522 1.25799,2.03547 6.15124,1.8707 6.1767,-0.20799 0.0138,-1.12517 0.45697,-1.01266 1.32954,0.33755 0.71988,1.11393 1.31817,3.93013 1.32954,6.25822 0.0334,6.83993 -6.94154,10.1609 -16.85696,8.02605 -3.28064,-0.70633 -5.65629,0.15752 -12.4973,4.54435 -9.87891,6.33491 -13.48978,12.09914 -11.2574,17.97079 4.08563,10.74601 27.00606,12.50092 28.21593,2.16036 0.48372,-4.13439 -2.64881,-5.90819 -6.65114,-3.7662 -1.46815,0.78573 -4.31021,1.23925 -6.31568,1.00781 -2.86408,-0.33051 -3.64631,-1.13637 -3.64631,-3.75645 0,-4.51729 5.00202,-7.02482 10.31708,-5.17198 3.74669,1.3061 10.04313,0.9634 17.48669,-0.95176 2.41734,-0.62196 4.20422,-0.19625 5.77673,1.37625 1.94403,1.94404 2.14963,4.08231 1.40683,14.63143 -1.063,15.09663 -3.19595,19.39474 -11.73354,23.64425 -7.14944,3.55857 -24.36932,5.04442 -34.05548,2.93855 z m -20.92827,-20.22439 c 0,-1.4414 -0.66054,-3.02897 -1.46786,-3.52792 -2.06459,-1.27599 -4.45399,1.4932 -3.47954,4.03258 1.1574,3.01613 4.9474,2.62953 4.9474,-0.50466 z m -448.27005,1.27052 c 0,-0.74261 0.64345,-1.35021 1.42989,-1.35021 0.78644,0 1.05438,0.6076 0.59542,1.35021 -0.45896,0.74262 -1.10241,1.35022 -1.42989,1.35022 -0.32749,0 -0.59542,-0.6076 -0.59542,-1.35022 z m 29.73172,-34.46301 c 0.93937,-1.13187 1.986,-1.77989 2.32585,-1.44004 0.93636,0.93637 -0.96614,3.49799 -2.59794,3.49799 -0.89533,0 -0.79289,-0.77472 0.27209,-2.05795 z m 403.68601,-38.44837 c 0,-0.74262 0.60759,-1.35021 1.35021,-1.35021 0.74261,0 1.35021,0.60759 1.35021,1.35021 0,0.74261 -0.6076,1.35021 -1.35021,1.35021 -0.74262,0 -1.35021,-0.6076 -1.35021,-1.35021 z M 42.82532,103.91672 c -2.808944,-0.7022 -6.988184,-2.24944 -9.287202,-3.43831 -2.299018,-1.188863 -5.610992,-1.888029 -7.359941,-1.553695 -2.836931,0.542314 -3.086972,0.228049 -2.318254,-2.913696 0.473909,-1.936865 1.375248,-3.724104 2.002976,-3.971642 2.429025,-0.957866 1.135377,-5.62588 -1.559101,-5.62588 -1.76785,0 -2.700422,0.900141 -2.700422,2.606514 0,1.66017 -1.085034,2.763163 -2.988508,3.037974 -1.64368,0.237304 -4.833553,2.976613 -7.088608,6.087355 -2.2550545,3.11074 -4.8595932,5.69302 -5.7878632,5.7384 -2.8741941,0.1405 -1.911681,-1.51606 4.3881862,-7.552393 C 16.922211,89.81999 17.841968,85.613096 13.356172,81.559473 9.5108408,78.084611 4.3052366,67.552968 3.2876875,61.189565 2.7185597,57.630436 3.3453966,53.358883 5.2792043,47.618463 6.8313383,43.011025 8.101266,37.359407 8.101266,35.059312 c 0,-2.300096 0.713103,-5.509135 1.5846733,-7.1312 0.8715707,-1.622067 1.9406647,-4.678582 2.3757657,-6.792258 0.597006,-2.900196 1.98541,-4.253634 5.659112,-5.516593 2.677412,-0.920449 6.620976,-2.898197 8.763476,-4.394995 7.576924,-5.2934045 16.827366,-7.8382132 28.224855,-7.7646933 12.819151,0.08269 19.017695,2.8759447 20.688232,9.3227513 0.699333,2.698819 2.648533,4.889883 5.849847,6.575718 4.959372,2.611642 9.220855,9.449265 9.211863,14.780592 -0.0068,3.989083 -4.45166,11.087662 -8.675933,13.855512 -2.27264,1.48909 -6.232468,2.224213 -11.878807,2.205241 -5.062531,-0.01701 -9.672758,0.743418 -11.46022,1.890295 -1.644758,1.055314 -4.530834,1.918754 -6.413502,1.918754 -2.522891,0 -3.423032,0.710119 -3.423032,2.700422 0,1.772912 -0.900141,2.700421 -2.620737,2.700421 -3.181341,0 -4.42112,1.721744 -3.315136,4.603893 1.03751,2.703708 3.74696,2.759325 5.935873,0.121846 0.924475,-1.113924 2.214061,-2.025317 2.865749,-2.025317 2.161372,0 1.229125,2.533435 -2.190643,5.953203 -6.315641,6.31564 -3.006449,11.599539 7.264538,11.599539 3.534004,0 7.569451,0.88714 9.017481,1.982376 3.642307,2.754901 5.990825,2.544273 9.617196,-0.862525 1.71582,-1.611929 3.55402,-2.496433 4.084889,-1.965564 0.530869,0.530869 -0.773032,2.351248 -2.897559,4.045286 -3.140266,2.503961 -3.722099,3.81598 -3.110665,7.014485 1.018172,5.326228 -0.772491,8.162158 -7.235732,11.459459 -6.443553,3.28725 -16.082026,4.35955 -23.19753,2.58076 z M 73.825625,19.441788 c 0.839484,-2.18766 -1.533763,-4.530896 -4.627311,-4.568792 -1.764843,-0.02162 -2.344998,4.272864 -0.787623,5.830237 1.626765,1.626767 4.569704,0.941189 5.414934,-1.261445 z M 447.06583,102.99897 c -6.00627,-2.9587 -10.25992,-12.056008 -8.93043,-19.099549 0.50994,-2.701646 1.1359,-9.165248 1.39101,-14.36356 0.25512,-5.198312 0.65592,-11.274261 0.89067,-13.502109 0.42344,-4.018649 0.37197,-4.05154 -6.5199,-4.1656 -9.83229,-0.162725 -14.86515,-2.658584 -18.7589,-9.302767 -4.15432,-7.088804 -4.3993,-15.806155 -0.61845,-22.007303 3.42319,-5.614546 3.42157,-9.279995 -0.005,-11.4199531 -2.83605,-1.7713608 -3.68852,-5.0874962 -1.30749,-5.0874962 0.76593,0 1.76968,1.0632911 2.23054,2.3628691 2.03813,5.7470572 8.52877,9.6484572 8.52877,5.1264732 0,-1.079174 2.88608,-3.3109528 6.41351,-4.9595089 5.06809,-2.3685964 8.39619,-2.9211533 15.86498,-2.6340289 13.0234,0.5006625 17.8191,0.4890537 25.65401,-0.0621 5.34077,-0.3757013 8.3723,0.3300256 14.512,3.3783174 7.39154,3.6698154 7.92176,3.7478634 11.13924,1.639687 1.85806,-1.2174468 3.37829,-2.8071276 3.37829,-3.5326241 0,-0.7254964 0.59457,-1.3190845 1.32126,-1.3190845 0.81691,0 0.75531,1.2421488 -0.16137,3.2540408 -1.25489,2.7541672 -0.93932,3.9663772 2.05426,7.8911602 4.92796,6.460884 4.91916,15.57718 -0.0213,22.054442 -3.43772,4.507081 -3.47635,4.755478 -1.14094,7.336071 1.32952,1.469069 1.75138,2.671034 0.93749,2.671034 -0.81388,0 -1.8553,-0.607594 -2.31426,-1.35021 -1.31223,-2.123234 -7.4241,-1.576473 -8.31447,0.743805 -0.46378,1.208601 0.51713,3.499809 2.31985,5.418726 2.15871,2.297827 2.69049,3.75763 1.72175,4.726366 -0.96873,0.968737 -2.09881,0.337666 -3.65881,-2.043197 -2.95532,-4.510389 -8.15313,-4.559865 -11.07181,-0.105384 -1.64417,2.509311 -1.96551,4.957909 -1.29268,9.849965 0.60442,4.394633 0.23419,8.429742 -1.13919,12.415997 -1.11904,3.248024 -1.69504,7.603313 -1.28003,9.678418 1.15824,5.791171 -0.51881,10.623318 -3.68696,10.623318 -2.33792,0 -2.51022,-0.3961 -1.22051,-2.805929 3.83018,-7.156759 -3.23119,-9.005851 -8.85747,-2.319415 l -3.64019,4.326132 2.824,2.286744 c 2.79759,2.265343 2.77342,2.306983 -2.5831,4.450243 -6.74619,2.69929 -8.91185,2.67654 -14.65794,-0.15399 z M 430.11491,16.084884 c 1.15866,-1.874739 -1.40956,-4.517852 -3.27161,-3.367035 -1.55067,0.958358 -0.55776,4.834893 1.23836,4.834893 0.61934,0 1.5343,-0.660537 2.03325,-1.467858 z m 124.82181,87.218046 c -3.34177,-1.09787 -7.77783,-2.00534 -9.85793,-2.01662 -3.05677,-0.0166 -4.17088,-0.95129 -5.81015,-4.874595 -1.70545,-4.081726 -2.52935,-4.728316 -5.17785,-4.063583 -2.39248,0.600473 -3.31865,0.144431 -3.85248,-1.896952 -0.95683,-3.658924 -2.90838,-3.375904 -6.9769,1.011812 -4.1824,4.510533 -4.51184,3.055242 -0.52813,-2.33302 2.86365,-3.873284 2.86842,-3.975313 0.3602,-7.70904 -6.38858,-9.510012 -7.74131,-14.269249 -7.79157,-27.412496 -0.0452,-11.823386 0.28853,-13.484266 4.26545,-21.227318 2.37299,-4.620173 4.31451,-9.383539 4.31451,-10.585259 0,-1.201719 1.25236,-3.199049 2.78304,-4.438512 3.20758,-2.597342 2.43474,-6.403245 -1.55756,-7.670354 -1.41663,-0.4496206 -2.57569,-1.3841424 -2.57569,-2.0767152 0,-2.2004694 2.12928,-1.3661184 5.40084,2.1163042 3.22618,3.434115 8.60098,4.493786 10.14245,1.999641 0.46769,-0.756737 3.99722,-2.9971544 7.8434,-4.9787046 10.73907,-5.5327605 22.43334,-5.0857723 36.91643,1.4110498 6.06123,2.7189478 11.84685,4.9435408 12.85693,4.9435408 1.01006,0 3.97252,1.760693 6.58321,3.912649 10.15229,8.368372 16.99575,31.347666 13.83018,46.439616 -1.37693,6.564558 -5.62064,14.928945 -13.5006,26.609756 l -3.18801,4.725738 3.41412,2.973211 c 3.36512,2.930521 4.49406,5.803161 2.28065,5.803161 -0.62341,0 -1.80157,-1.46629 -2.61812,-3.25842 -2.33623,-5.127457 -5.75031,-5.263627 -15.93611,-0.63561 -11.11861,5.05184 -22.52851,6.21762 -31.62031,3.23072 z m -12.63357,-13.5311 c 0.43108,-1.123381 0.008,-2.97666 -0.93905,-4.118397 -1.51719,-1.828097 -1.96018,-1.838541 -3.71121,-0.08751 -2.34925,2.349243 -1.2532,6.248416 1.75641,6.248416 1.16053,0 2.46277,-0.91913 2.89385,-2.042511 z m 28.75713,-12.050633 c 4.56794,-4.86236 5.24269,-13.85953 1.40421,-18.724038 -4.12459,-5.227096 -9.74963,-4.665804 -10.89575,1.087226 -0.72214,3.624931 -0.92532,3.766832 -1.93324,1.350211 -1.54613,-3.707078 -3.60362,-4.844718 -5.66615,-3.132966 -2.5204,2.091743 -2.19074,3.958679 2.29571,13.001177 5.28051,10.64294 9.22066,12.352234 14.79522,6.41839 z m 7.96095,-23.572642 c -2.03898,-3.276781 -5.61106,-3.248729 -6.24615,0.04905 -0.23127,1.200912 0.60804,3.212019 1.86515,4.469123 1.99283,1.992828 2.53555,2.035738 4.23634,0.334946 1.64548,-1.645479 1.66812,-2.404834 0.14466,-4.853123 z M 100.51907,100.64181 C 96.466046,96.588785 95.204725,91.600345 96.95989,86.565477 97.88732,83.90505 97.896367,79.167716 96.98766,72.026879 96.03245,64.520664 96.098675,58.005869 97.21496,49.66621 98.107045,43.00153 98.383347,34.098792 97.852073,29.137823 96.566229,17.130797 100.07564,9.5719507 108.925,5.2880502 c 5.8814,-2.8471391 6.63865,-2.8989924 17.54932,-1.2017033 9.35967,1.4560128 13.6758,1.4617426 24.08956,0.03198 14.48772,-1.9891015 20.44318,-1.2480978 28.65724,3.565663 5.49549,3.2205781 5.97806,3.2839511 9.15506,1.2022965 1.84459,-1.2086166 3.35379,-2.7910724 3.35379,-3.5165689 0,-0.7254964 1.06329,-1.2943914 2.36286,-1.264211 1.78884,0.041543 1.29681,0.9674827 -2.0253,3.8114106 -4.87407,4.1724709 -5.9636,9.6358249 -1.92161,9.6358249 1.96487,0 2.34733,0.812431 1.88034,3.994245 -0.36338,2.475845 0.42949,5.683834 2.08571,8.438818 3.90851,6.501477 4.61092,11.053091 2.81972,18.271737 -1.82212,7.343206 -3.91247,11.080912 -10.20324,18.244235 -5.51225,6.276813 -5.54997,8.110808 -0.26358,12.812698 5.38064,4.785712 7.96552,9.847762 7.96552,15.599077 0,7.473638 -2.80037,8.862288 -17.31802,8.587678 -11.04721,-0.20896 -12.76977,-0.5678 -14.03879,-2.92456 -2.08991,-3.881272 -1.86461,-3.75614 -8.8315,-4.90515 -3.51668,-0.579986 -8.3338,-1.445169 -10.70472,-1.922628 -3.9947,-0.804461 -4.49034,-0.486486 -6.76034,4.337068 l -2.44956,5.20517 -15.30716,0.27237 c -14.47775,0.25761 -15.48022,0.0993 -18.50122,-2.92169 z m 4.79739,-15.353488 c 0,-4.493407 -0.90643,-5.711424 -3.50753,-4.713285 -1.04133,0.399592 -1.893316,2.484311 -1.893316,4.632707 0,3.006034 0.622286,3.906175 2.700426,3.906175 2.06503,0 2.70042,-0.900141 2.70042,-3.825597 z m 45.54783,-4.986069 c 2.58286,-1.80911 2.90792,-3.168674 2.66329,-11.13924 -0.25435,-8.287695 -0.5433,-9.116217 -3.31661,-9.510089 -1.67088,-0.237304 -3.03797,-1.264736 -3.03797,-2.283184 0,-2.788803 -2.31592,-3.662092 -5.37294,-2.026027 -2.86238,1.531898 -3.73846,6.204242 -1.31479,7.01213 0.91343,0.304478 0.67458,2.23973 -0.67511,5.469995 -2.66361,6.374913 -2.64136,6.71913 0.70978,10.979411 3.18346,4.047119 6.1008,4.469305 10.34435,1.497004 z m -41.43997,-3.823092 c -1.80281,-1.802807 -4.82591,0.92911 -3.46495,3.131199 0.70048,1.133399 1.45962,1.108573 2.91005,-0.09518 1.36141,-1.129873 1.53133,-2.059589 0.5549,-3.036028 z m 134.0086,26.149209 c -10.27821,-0.84302 -12.98113,-3.427029 -11.8543,-11.332739 0.88568,-6.213762 -1.28592,-13.813858 -5.16164,-18.064572 -2.14982,-2.357831 -2.42026,-3.421873 -1.18391,-4.658228 0.88131,-0.881304 1.60238,-2.631035 1.60238,-3.888292 0,-4.280029 -7.01907,-4.642079 -8.62961,-0.445124 -0.40541,1.056505 -1.34471,1.920919 -2.08733,1.920919 -2.22199,0 -0.0343,-3.884684 2.67134,-4.743406 4.13793,-1.313327 4.38746,-5.359983 0.66846,-10.84023 -1.8835,-2.7755 -3.42455,-5.890294 -3.42455,-6.921766 0,-1.03147 -1.82278,-5.486317 -4.05063,-9.89966 -6.44089,-12.759329 -4.74435,-22.673775 4.75535,-27.7896937 4.37955,-2.3585481 8.58919,-2.2611181 24.0752,0.5572105 7.6874,1.3990448 9.1683,3.2013468 8.10867,9.8685172 -0.62389,3.925512 -0.1794,5.516193 2.20877,7.904359 5.69426,5.694257 16.34021,0.216681 20.17156,-10.378698 3.1399,-8.6832559 10.27821,-12.519566 18.34294,-9.8579665 9.92479,3.2754759 11.52587,13.5813535 3.89579,25.0765525 -5.90502,8.896283 -11.28021,23.611178 -11.31883,30.985955 -0.0157,2.99088 -0.86634,6.63645 -1.89039,8.101265 -6.62118,9.471003 -7.81443,13.136931 -6.88439,21.150246 0.70983,6.115968 0.43185,8.641516 -1.23037,11.178391 -1.95613,2.98544 -2.96032,3.25448 -11.27523,3.02087 -5.02032,-0.14105 -12.89949,-0.56581 -17.50928,-0.94391 z m 37.41097,-43.979837 c 0,-1.721784 -0.60502,-3.504432 -1.34447,-3.961442 -1.82179,-1.12593 -4.62703,5.338198 -3.5428,8.163679 1.21962,3.178251 4.88727,0.02468 4.88727,-4.202237 z M 258.90948,32.743324 c 0.66752,-2.026894 -2.92371,-3.633012 -5.72215,-2.559147 -2.96123,1.136332 -0.88999,5.143463 2.40619,4.655142 1.51821,-0.224918 3.01038,-1.168115 3.31596,-2.095995 z m 50.70154,70.127766 c -3.58705,-2.21691 -4.6235,-8.580134 -3.01831,-18.530615 1.16036,-7.193004 1.17553,-11.494664 0.0589,-16.701159 -2.25067,-10.494543 -1.94235,-12.016723 3.43111,-16.939467 6.16152,-5.644686 6.27308,-9.730627 0.56158,-20.56605 -5.14442,-9.759739 -5.52644,-17.582929 -1.1084,-22.7005762 l 3.03798,-3.51905 29.02953,-0.1957426 c 31.42697,-0.2119082 33.39522,0.1319156 40.49718,7.0743108 4.15785,4.064433 4.42148,4.133163 7.67545,2.001086 1.85333,-1.214351 3.77266,-1.789148 4.26519,-1.277326 0.49253,0.511822 -0.47157,1.84967 -2.14246,2.972996 -4.17049,2.803794 -3.79289,5.999474 1.0334,8.745848 2.22987,1.268891 4.68788,4.003068 5.46223,6.075949 0.77435,2.07288 2.59166,6.239186 4.03842,9.258458 3.40951,7.115272 3.48212,18.659523 0.15688,24.942222 -2.11169,3.989832 -6.98309,12.96092 -7.95787,14.655112 -0.16771,0.291477 -1.25675,-0.259987 -2.4201,-1.225477 -1.60865,-1.335063 -2.49148,-1.379118 -3.68663,-0.183965 -1.19516,1.195151 0.0189,3.186113 5.06975,8.314083 6.98758,7.094248 7.23861,9.1041 0.42055,3.367087 -5.07251,-4.268234 -5.95205,-4.232302 -15.17641,0.619988 -10.35301,5.446003 -16.12439,6.356448 -23.34043,3.681994 -8.41479,-3.11874 -10.30884,-1.978168 -9.18295,5.529823 l 0.91053,6.071821 -6.52445,-0.98841 c -9.25979,-1.40282 -12.22414,-1.46098 -21.38607,-0.41965 -4.46083,0.50701 -8.82789,0.47853 -9.70457,-0.0633 z m 45.49447,-27.25928 c 0.79487,-1.485232 2.65206,-2.700422 4.12709,-2.700422 4.4914,0 6.26597,-5.950814 3.8107,-12.778676 -1.76141,-4.898228 -1.78929,-5.9358 -0.18695,-6.953454 2.32968,-1.479583 0.87007,-5.921877 -1.94575,-5.921877 -1.104,0 -2.3276,1.224964 -2.71913,2.722143 -0.39152,1.49718 -1.39792,2.59325 -2.23646,2.435714 -3.23851,-0.608421 -7.62301,1.905677 -8.23356,4.721164 -0.5285,2.437144 -0.21525,16.521756 0.44843,20.163172 0.39012,2.140358 5.56021,0.882229 6.93563,-1.687764 z M 78.540142,92.960912 c 0.248437,-1.746778 1.546142,-3.35385 2.91972,-3.615766 1.914227,-0.36501 2.371542,0.238513 2.025317,2.672835 -0.248438,1.746777 -1.546143,3.35385 -2.919721,3.615766 -1.914226,0.36501 -2.371542,-0.238513 -2.025316,-2.672835 z M 10.629461,82.700417 c -1.6794873,-2.14151 -1.63173,-2.189267 0.50978,-0.509778 1.299578,1.019198 2.362869,2.082489 2.362869,2.362869 0,1.111269 -1.108774,0.396021 -2.872649,-1.853091 z M 285.94289,66.482701 c -0.7534,-2.90503 0.1155,-5.723211 1.76457,-5.723211 1.5882,0 1.62371,6.353114 0.041,7.331289 -0.65818,0.406782 -1.47069,-0.316853 -1.80555,-1.608078 z m 134.64784,-9.773843 c -0.45897,-0.742616 -0.19103,-1.350211 0.59541,-1.350211 0.78645,0 1.4299,0.607595 1.4299,1.350211 0,0.742616 -0.26793,1.350211 -0.59541,1.350211 -0.32748,0 -0.97094,-0.607595 -1.4299,-1.350211 z M 307.39804,43.656819 c -1.34446,-1.344458 -1.08689,-8.551336 0.30561,-8.551336 1.46262,0 2.84488,3.333843 2.84488,6.861485 0,2.594315 -1.4619,3.378445 -3.15049,1.689851 z M 5.6033757,12.219409 c 0.2970464,-0.89114 0.9805907,-1.574684 1.5189873,-1.518988 1.6144515,0.167013 1.3017859,2.018955 -0.4388185,2.599156 -0.8911393,0.297047 -1.3772153,-0.189029 -1.0801688,-1.080168 z"
         id="path232" />
      <path
         style="fill:#11383a;stroke-width:1.35021"
         d="m 73.945355,206.68112 -4.409488,-3.9518 0.541363,-11.91318 c 0.671921,-14.78626 0.754793,-30.1591 0.207939,-38.57291 -0.250915,-3.86053 0.283092,-7.24937 1.343727,-8.52736 1.463509,-1.76342 1.356969,-2.8033 -0.632223,-6.17072 -1.968391,-3.33223 -2.2257,-5.70927 -1.451987,-13.41357 l 0.940356,-9.36365 4.25115,-0.007 4.251152,-0.007 -3.940386,-3.15292 c -6.170403,-4.93729 -2.350725,-10.32227 4.352442,-6.13607 1.81706,1.13477 3.937474,0.97754 8.721608,-0.64671 3.476484,-1.1803 7.194277,-1.81084 8.261763,-1.40121 1.466653,0.56281 1.272391,-0.60635 -0.795057,-4.785037 C 93.31223,94.033314 93.078017,92.211322 94.196065,87.80656 95.024158,84.544129 95.110178,78.243282 94.420079,71.397775 93.788771,65.135462 93.834701,55.82129 94.525314,50.058105 95.199342,44.433271 95.624608,34.270595 95.470351,27.474383 95.198147,15.481787 95.313412,14.96451 99.381637,9.9216419 101.80107,6.9225696 106.25245,3.6097505 109.90969,2.0864091 c 6.18649,-2.57684147 6.61672,-2.58255662 18.19715,-0.241731 10.96948,2.2174226 12.47601,2.2381922 20.04659,0.27646 C 152.65559,0.95451215 158.81251,0 161.83548,0 c 6.27921,0 17.28459,3.3997529 20.09142,6.2065876 2.59252,2.5925174 3.44237,2.4153306 7.10264,-1.4808495 3.65048,-3.88575519 7.7942,-4.39658176 9.05307,-1.1160361 0.59104,1.5402332 -0.49697,3.3982231 -3.41791,5.8367269 -2.35673,1.9674801 -4.28495,3.9886831 -4.28495,4.4915631 0,1.787681 3.10458,0.877744 4.76833,-1.397575 1.47464,-2.016681 1.98549,-2.067087 4.00056,-0.394729 2.1675,1.798863 2.14561,2.050335 -0.35479,4.075036 -3.9185,3.173006 -4.93863,7.679259 -2.56019,11.30922 7.34288,11.206649 4.71742,27.121399 -6.49336,39.360708 -2.61877,2.859029 -4.76139,5.636146 -4.76139,6.171371 0,0.535227 2.42527,3.574009 5.3895,6.752852 5.76706,6.184622 7.5954,11.861601 6.20576,19.268968 -0.64066,3.415027 -0.33758,4.768467 1.19994,5.358467 2.61987,1.00534 2.62244,3.41237 0.007,6.30272 -1.84059,2.03382 -1.77453,2.87375 0.64545,8.20758 1.48272,3.26804 2.70968,7.15709 2.72659,8.64232 0.0201,1.77475 0.99886,0.74454 2.85503,-3.00537 4.19707,-8.47901 11.43852,-14.76853 20.91816,-18.1683 l 8.34395,-2.99247 -2.71341,-3.670083 c -2.1034,-2.844999 -2.50584,-4.776546 -1.79011,-8.591742 1.06872,-5.696784 -1.07996,-13.353882 -4.78774,-17.061659 -2.78489,-2.784832 -3.30699,-5.963951 -1.19397,-7.269867 0.74261,-0.458962 1.35021,-1.512125 1.35021,-2.340362 0,-0.828237 -1.40625,-0.184784 -3.125,1.429896 -1.71875,1.614681 -4.45293,2.935783 -6.07595,2.935783 -4.65481,0 -3.88984,-5.614212 1.17243,-8.604565 2.26785,-1.339656 3.92577,-2.837748 3.68424,-3.329089 -1.1476,-2.334546 -8.51049,-17.87396 -11.51351,-24.299315 -4.21245,-9.013075 -3.78361,-18.174911 1.13228,-24.1902994 4.68383,-5.7314265 9.49451,-7.49089282 17.79709,-6.5091356 3.88025,0.4588294 10.21575,1.1785893 14.07888,1.5994665 8.62282,0.939433 10.52886,3.0610302 10.52886,11.7196065 0,8.235424 2.33383,10.374748 8.52182,7.811598 3.01795,-1.250072 5.2489,-3.984113 8.36603,-10.252551 4.8693,-9.7920277 10.57097,-13.63380237 18.35867,-12.37003379 14.29544,2.31982929 18.00332,16.04913479 8.36173,30.96126979 -3.87821,5.998239 -10.58666,22.320304 -10.54174,25.648702 0.008,0.556962 1.21728,1.012659 2.68836,1.012659 4.78739,0 5.56334,9.841344 0.99994,12.682283 -1.85308,1.153641 -2.68402,1.041482 -3.63965,-0.491283 -1.50769,-2.418177 -1.63934,-2.291307 -5.83166,5.619953 -2.89372,5.460706 -3.25938,7.544986 -2.65175,15.114895 0.67477,8.406242 0.52929,8.956283 -3.4112,12.896773 -2.40044,2.40044 -3.53762,4.47351 -2.7283,4.97369 0.76325,0.47172 1.7755,0.26319 2.24942,-0.46339 1.34697,-2.06501 6.08509,-4.12448 7.95032,-3.45568 2.69787,0.96736 1.9524,5.27589 -1.28472,7.42526 -2.93939,1.95169 -2.90476,2.01334 3.11231,5.53957 10.81617,6.33871 14.79236,18.03828 9.49649,27.9427 -3.49999,6.54577 -9.96437,9.97336 -20.33202,10.78062 -4.93758,0.38446 -8.89723,1.36408 -9.1973,2.27542 -0.28979,0.88018 1.94161,4.14395 4.95867,7.25282 4.5691,4.70814 5.8237,5.37187 7.50952,3.97275 2.95232,-2.4502 6.50977,0.78388 5.46056,4.96423 -0.4383,1.74635 -0.17737,3.13816 0.58832,3.13816 0.75676,0 1.37593,1.47672 1.37593,3.28162 0,2.36312 -0.84109,3.40238 -3.00504,3.71308 -2.08227,0.29896 -3.64164,2.08994 -5.07813,5.8323 -3.45741,9.00737 -5.20099,11.23476 -11.85727,15.1475 -6.51296,3.82851 -11.34542,4.21357 -37.44353,2.98354 -2.22785,-0.10505 -5.23028,0.0258 -6.67208,0.29051 -1.72669,0.31708 -3.21767,-0.67073 -4.36828,-2.89412 -0.96076,-1.85654 -1.75579,-2.65943 -1.76674,-1.78421 -0.0235,1.87517 -3.73532,5.83484 -5.46968,5.83484 -0.66345,0 -1.81101,-1.12998 -2.55016,-2.51107 -1.03404,-1.93214 -0.59368,-3.5279 1.90999,-6.92144 2.36748,-3.20893 3.04332,-5.46308 2.48097,-8.27484 -0.49758,-2.48789 0.0504,-5.12084 1.53804,-7.39141 1.96171,-2.99396 2.95593,-3.39195 6.57912,-2.63367 9.48354,1.98479 12.34106,1.60358 12.81065,-1.70897 0.53805,-3.79545 -1.81894,-6.83297 -7.19225,-9.2689 -12.2796,-5.5668 -20.82892,-16.69073 -20.89862,-27.19217 -0.0194,-2.93749 -0.54549,-4.14906 -1.53562,-3.53712 -0.9724,0.60096 -1.19574,3.14076 -0.63035,7.1683 0.4816,3.43064 1.10639,15.20402 1.38844,26.16305 0.4747,18.44506 0.29332,20.34057 -2.44129,25.51178 -3.28855,6.21874 -10.05901,10.59957 -16.36783,10.5908 -2.23943,-0.003 -7.06075,-1.52209 -10.71403,-3.37552 -3.65328,-1.85343 -6.77229,-3.36987 -6.93113,-3.36987 -0.15884,0 -0.6204,1.26803 -1.02568,2.81785 -1.06422,4.06956 -5.65402,2.86314 -5.65402,-1.48614 0,-1.84636 -0.75857,-4.15902 -1.68574,-5.13921 -2.78668,-2.94612 -3.40353,-7.90587 -2.00274,-16.10319 0.79529,-4.65394 0.87025,-11.28737 0.18695,-16.54501 -0.72696,-5.59373 -0.60712,-11.46388 0.33048,-16.18741 0.87941,-4.43034 1.12045,-12.84763 0.59929,-20.92827 -0.78234,-12.13084 -0.59051,-13.97195 1.87039,-17.95075 1.50818,-2.43844 3.58375,-4.75649 4.61239,-5.15121 1.58099,-0.60668 1.56449,-1.33056 -0.10666,-4.6804 -1.55069,-3.10852 -2.88075,-3.962714 -6.17025,-3.962714 -2.30639,0 -6.21086,-0.729511 -8.67661,-1.621134 -4.81895,-1.742559 -6.28983,-1.019593 -7.74316,3.805918 -0.69065,2.29318 -0.045,3.19807 3.2588,4.5665 7.23273,2.9959 10.0751,8.64158 9.83139,19.52768 -0.11707,5.2259 -1.06616,12.66568 -2.10925,16.53286 -1.28348,4.75843 -1.45336,7.47439 -0.52557,8.40219 2.13444,2.13444 -1.20104,8.19527 -4.51015,8.19527 -1.52445,0 -3.12147,-0.9114 -3.54892,-2.02532 -1.69693,-4.42213 -20.08056,-1.63216 -24.52008,3.72127 -2.64949,3.19491 0.52078,4.38071 4.58769,1.71597 7.99017,-5.23536 17.27951,0.90312 14.08433,9.30708 -2.05308,5.40002 -6.85631,6.99172 -13.30831,4.41015 -6.21182,-2.48548 -6.98591,-2.03958 -6.98591,4.02415 0,3.14149 0.62444,4.5007 2.06769,4.5007 1.13723,0 2.42039,0.91913 2.85147,2.04251 1.08571,2.82931 -2.18706,6.382 -5.1624,5.60393 -2.97859,-0.77893 -3.20236,0.85595 -0.43187,3.15525 3.13141,2.59883 2.47927,9.12027 -1.28884,12.88837 -3.8188,3.81881 -7.33248,4.1619 -12.937722,1.26332 -3.547154,-1.8343 -4.484103,-1.8343 -8.874213,0 -7.413062,3.09737 -12.045929,2.58074 -17.0467,-1.90094 z M 93.34839,205.8292 c 2.846422,-0.49669 6.142244,-0.19698 7.8429,0.71318 1.62875,0.87168 4.70019,1.18181 6.90605,0.69732 6.4306,-1.41239 6.82614,-7.65714 0.99876,-15.76826 -1.32409,-1.843 -1.21381,-2.75566 0.5713,-4.72819 1.21665,-1.34439 2.4063,-5.17218 2.64366,-8.5062 0.50159,-7.04551 2.54132,-8.05585 10.77668,-5.33793 4.57333,1.50934 5.48407,1.42352 7.87718,-0.74221 6.88293,-6.22897 -1.35743,-13.81656 -8.85031,-8.14922 -3.79458,2.87007 -8.35625,2.56813 -9.36816,-0.62009 -0.46928,-1.47859 -0.51372,-3.23771 -0.0987,-3.90915 0.41498,-0.67145 -0.22183,-1.59547 -1.41512,-2.05338 -1.76505,-0.6773 -1.85609,-1.21035 -0.48821,-2.85854 1.17617,-1.4172 2.17897,-1.61307 3.33717,-0.65184 1.14089,0.94684 3.44716,0.7421 7.41678,-0.65846 3.16856,-1.11794 8.65529,-2.03261 12.19274,-2.03261 9.88883,0 11.81728,-2.35119 14.39681,-17.55274 1.97752,-11.65383 1.98378,-13.28049 0.0686,-17.78527 -3.63152,-8.54151 -5.4043,-9.03187 -33.79117,-9.34699 -17.692659,-0.19641 -25.852697,0.18934 -26.936713,1.27335 -1.912194,1.91214 -7.305206,2.04305 -8.441243,0.2049 -1.083452,-1.75306 -4.725739,-1.75306 -4.725739,0 0,0.74262 0.890015,1.35021 1.977811,1.35021 2.31615,0 4.675937,3.97945 3.80317,6.4135 -0.332844,0.92827 -2.111719,1.68777 -3.953054,1.68777 -2.401051,0 -3.264191,0.66825 -3.051959,2.36287 0.162757,1.29958 -0.421018,4.11111 -1.297279,6.24785 -1.354733,3.30349 -1.184226,4.57816 1.13916,8.516 3.231173,5.47643 3.345504,7.03677 0.865824,11.81636 -1.408918,2.71569 -1.545845,4.988 -0.558495,9.26826 1.242902,5.38812 0.824024,19.7146 -1.055862,36.11264 -0.784968,6.84719 -0.538062,7.86934 2.882991,11.93502 3.993204,4.74566 3.504309,4.68961 18.334478,2.10185 z M 79.662449,120.26521 c 0,-3.01946 3.406078,-6.84749 6.092708,-6.84749 3.098323,0 3.708825,2.64016 1.418709,6.13532 -2.637552,4.02541 -7.511417,4.48751 -7.511417,0.71217 z m 6.19841,-3.79958 c -0.936368,-0.93637 -3.497988,0.96614 -3.497988,2.59794 0,0.89532 0.774727,0.79289 2.057946,-0.27209 1.13187,-0.93937 1.779888,-1.986 1.440042,-2.32585 z m 106.085371,87.89561 c 5.47522,-4.95502 6.31519,-9.71958 5.59275,-31.72415 -0.76513,-23.30505 -0.78238,-27.55165 -0.16677,-41.04966 0.33387,-7.32072 -0.11018,-10.33997 -1.92917,-13.11706 -2.90445,-4.43427 -2.98693,-6.90449 -0.30492,-9.13037 3.28081,-2.72283 1.28827,-3.07664 -3.46984,-0.61613 -3.60833,1.86595 -4.97331,1.97233 -7.88918,0.6149 -10.06631,-4.6862 -17.41555,-4.00182 -23.20426,2.16084 -3.12228,3.32399 -3.28587,4.38044 -3.5025,22.61809 -0.12503,10.52218 -0.42879,28.81877 -0.6751,40.65909 -0.41372,19.88665 -0.24832,21.71377 2.1696,23.96625 1.4396,1.34111 3.35396,2.43838 4.25411,2.43838 0.90015,0 4.88685,1.54544 8.85932,3.43431 8.20692,3.90228 15.77783,3.80721 20.26596,-0.25449 z m -32.00037,-22.17038 c -0.48875,-0.7908 -0.48996,-3.56286 -0.003,-6.16013 1.09863,-5.85621 5.22178,-5.90698 5.89282,-0.0726 0.62828,5.46273 -3.60046,9.93743 -5.89011,6.2327 z m 2.97368,-7.001 c -0.37456,-0.92827 -0.68103,-0.16877 -0.68103,1.68777 0,1.85654 0.30647,2.61603 0.68103,1.68776 0.37456,-0.92827 0.37456,-2.44726 0,-3.37553 z m 22.70797,-53.71377 c -0.52437,-0.84844 -0.31806,-2.17795 0.45845,-2.95446 1.81455,-1.81455 6.04508,-0.23181 5.30684,1.9854 -0.75153,2.25713 -4.57231,2.89935 -5.76529,0.96906 z m 68.71059,85.17987 c 7.89067,-1.83076 14.65474,-7.96164 17.23937,-15.62554 1.40649,-4.17052 3.24795,-6.93804 5.06329,-7.60956 3.55524,-1.31518 3.79241,-3.83568 0.27434,-2.91569 -1.97922,0.51758 -3.70144,-1.081 -7.40939,-6.87746 -2.65695,-4.15348 -5.42457,-7.55177 -6.15029,-7.55177 -2.65324,0 -4.47571,-5.5603 -2.93255,-8.94716 1.31444,-2.8849 2.31904,-3.20474 10.06582,-3.20474 10.4527,0 16.70601,-3.54549 19.58232,-11.10271 3.67192,-9.64765 0.69894,-15.50288 -13.27775,-26.15026 -11.09894,-8.45512 -16.88462,-10.45491 -30.37975,-10.50058 -27.39909,-0.0927 -42.90864,12.02879 -42.78512,33.43885 0.027,4.68131 0.93405,10.5767 2.01565,13.10085 2.6523,6.1898 9.57157,12.90568 17.36575,16.85528 9.06306,4.5926 11.68489,10.459 6.99192,15.64466 -2.3871,2.63772 -9.20843,3.35831 -10.59242,1.11897 -0.45897,-0.74261 -2.30603,-1.35021 -4.10459,-1.35021 -3.54691,0 -4.61085,2.55576 -4.36068,10.47513 0.0914,2.89396 -0.94253,5.55038 -3.02185,7.76371 -2.43641,2.59343 -2.6788,3.36454 -1.05763,3.36454 1.15677,0 2.42099,-1.21519 2.80939,-2.70042 0.97356,-3.72289 6.35983,-3.67107 6.35983,0.0612 0,2.36512 0.63002,2.6569 4.38819,2.0323 2.4135,-0.40112 6.51476,-0.18706 9.11392,0.4757 6.29368,1.60485 18.33957,1.70437 24.80223,0.20494 z m 0.21541,-51.31903 c -1.53979,-2.49144 0.69151,-6.81373 3.51746,-6.81373 2.1462,0 2.61161,0.75825 2.27188,3.70153 -0.43693,3.7855 -4.14219,5.77734 -5.78934,3.1122 z m 14.13848,-36.51837 c 0,-2.03362 0.70501,-2.76266 2.36287,-2.44338 1.29958,0.25027 2.36287,1.3498 2.36287,2.44338 0,1.09358 -1.06329,2.1931 -2.36287,2.44338 -1.65786,0.31927 -2.36287,-0.40976 -2.36287,-2.44338 z m -151.89874,68.86075 c 0.45896,-0.74261 0.19102,-1.35021 -0.59542,-1.35021 -0.78644,0 -1.42989,0.6076 -1.42989,1.35021 0,0.74262 0.26793,1.35022 0.59542,1.35022 0.32748,0 0.97093,-0.6076 1.42989,-1.35022 z m 29.76016,-33.8451 c 1.4532,-2.35131 -0.20188,-2.84927 -2.05375,-0.61791 -1.06498,1.28323 -1.16742,2.05795 -0.27209,2.05795 0.78971,0 1.83634,-0.64802 2.32584,-1.44004 z m -9.77639,-55.74825 c 2.26999,-4.823554 2.76563,-5.141529 6.76033,-4.337068 2.37092,0.477459 7.18804,1.342642 10.70472,1.922628 6.96689,1.14901 6.74159,1.023878 8.8315,4.90515 1.26902,2.35676 2.99158,2.7156 14.03879,2.92456 14.51765,0.27461 17.31802,-1.11404 17.31802,-8.587678 0,-5.751315 -2.58488,-10.813365 -7.96552,-15.599077 -5.28639,-4.70189 -5.24867,-6.535885 0.26358,-12.812698 6.29078,-7.163323 8.38113,-10.901029 10.20324,-18.244235 1.7912,-7.218646 1.08879,-11.77026 -2.81972,-18.271737 -1.65621,-2.754984 -2.44909,-5.962973 -2.08571,-8.438818 0.46699,-3.181814 0.0845,-3.994245 -1.88034,-3.994245 -4.04198,0 -2.95245,-5.463354 1.92161,-9.6358252 3.32212,-2.8439279 3.81415,-3.769868 2.02531,-3.8114106 -1.29958,-0.03018 -2.36287,0.5387146 -2.36287,1.264211 0,0.7254965 -1.5092,2.3079523 -3.35379,3.5165686 -3.177,2.0816552 -3.65957,2.0182822 -9.15506,-1.2022965 C 171.00705,2.8702285 165.05159,2.1292248 150.56387,4.1183263 140.15011,5.5480895 135.83398,5.5423597 126.47431,4.0863469 115.56364,2.3890578 114.80639,2.4409111 108.92499,5.2880502 100.07563,9.5719507 96.566224,17.130797 97.852068,29.137823 c 0.531274,4.960969 0.254972,13.863707 -0.637113,20.528387 -1.116285,8.339659 -1.18251,14.854454 -0.2273,22.360669 0.908712,7.140837 0.899665,11.878171 -0.02776,14.538598 -1.755165,5.034868 -0.493843,10.023308 3.559185,14.076333 3.02099,3.02099 4.02346,3.1793 18.50122,2.92169 l 15.30715,-0.27237 z M 99.915614,85.207744 c 0,-2.148396 0.851986,-4.233115 1.893316,-4.632707 2.6011,-0.998139 3.50753,0.219878 3.50753,4.713285 0,2.925456 -0.63539,3.825597 -2.70042,3.825597 -2.07814,0 -2.700426,-0.900141 -2.700426,-3.906175 z m 40.604326,-6.402495 c -3.35114,-4.260281 -3.37339,-4.604498 -0.70978,-10.979411 1.34969,-3.230265 1.58854,-5.165517 0.67511,-5.469995 -2.42367,-0.807888 -1.54759,-5.480232 1.31479,-7.01213 3.05702,-1.636065 5.37294,-0.762776 5.37294,2.026027 0,1.018448 1.36709,2.04588 3.03797,2.283184 2.77331,0.393872 3.06226,1.222394 3.31661,9.510089 0.24463,7.970566 -0.0805,9.33013 -2.66329,11.13924 -4.24355,2.972301 -7.16089,2.550115 -10.34435,-1.497004 z m 8.86986,-0.17614 c 2.09153,-1.345759 1.69569,-16.513752 -0.43104,-16.516988 -2.09983,-0.0032 -7.03711,6.357997 -8.04183,10.361081 -1.32892,5.294851 3.90319,9.096199 8.47287,6.155907 z m -43.43043,0.981251 c -1.36096,-2.202089 1.66214,-4.934006 3.46495,-3.131199 0.97643,0.976439 0.80651,1.906155 -0.5549,3.036028 -1.45043,1.203744 -2.20957,1.22857 -2.91005,0.09518 z m 166.25806,20.94105 c 1.66222,-2.536875 1.9402,-5.062423 1.23037,-11.178391 -0.93004,-8.013315 0.26321,-11.679243 6.88439,-21.150246 1.02405,-1.464815 1.87472,-5.110385 1.89039,-8.101265 0.0386,-7.374777 5.41381,-22.089672 11.31883,-30.985955 7.63008,-11.495199 6.029,-21.8010766 -3.89579,-25.0765525 -8.06473,-2.6615995 -15.20304,1.1747106 -18.34294,9.8579665 -3.83135,10.595379 -14.4773,16.072955 -20.17156,10.378698 -2.38817,-2.388166 -2.83266,-3.978847 -2.20877,-7.904359 1.05963,-6.6671704 -0.42127,-8.4694724 -8.10867,-9.8685172 -15.48601,-2.8183286 -19.69565,-2.9157586 -24.0752,-0.5572105 -9.4997,5.1159187 -11.19624,15.0303647 -4.75535,27.7896937 2.22785,4.413343 4.05063,8.86819 4.05063,9.89966 0,1.031472 1.54105,4.146266 3.42455,6.921766 3.719,5.480247 3.46947,9.526903 -0.66846,10.84023 -2.70559,0.858722 -4.89333,4.743406 -2.67134,4.743406 0.74262,0 1.68192,-0.864414 2.08733,-1.920919 1.61054,-4.196955 8.62961,-3.834905 8.62961,0.445124 0,1.257257 -0.72107,3.006988 -1.60238,3.888292 -1.23635,1.236355 -0.96591,2.300397 1.18391,4.658228 3.87572,4.250714 6.04732,11.85081 5.16164,18.064572 -1.4334,10.056539 2.04061,11.508989 29.36358,12.276649 8.31491,0.23361 9.3191,-0.0354 11.27523,-3.02087 z m 3.73919,-37.70064 c -1.08423,-2.825481 1.72101,-9.289609 3.5428,-8.163679 2.03533,1.257906 1.60919,6.872255 -0.66488,8.759561 -1.63133,1.353898 -2.17273,1.241802 -2.87792,-0.595882 z M 252.00897,33.100444 c -0.48331,-1.25947 0.004,-2.465651 1.17836,-2.916267 2.79844,-1.073865 6.38967,0.532253 5.72215,2.559147 -0.84226,2.557512 -5.95462,2.82209 -6.90051,0.35712 z m 36.93618,30.954888 c 0,-3.440854 -2.0603,-4.529531 -3.04325,-1.608078 -0.84146,2.500919 0.46597,6.496769 1.84655,5.643525 0.65819,-0.406783 1.1967,-2.222733 1.1967,-4.035447 z m 20.92827,144.038188 c -10.00839,-4.59588 -12.99241,-10.7636 -11.95779,-24.71572 1.02244,-13.78787 1.01947,-14.18796 -0.18202,-24.45904 -0.75085,-6.41865 -0.55866,-10.74444 0.63849,-14.37186 1.35392,-4.10245 1.37374,-6.60209 0.0947,-11.93417 -2.07842,-8.66385 0.0879,-16.56257 6.22602,-22.70067 3.63955,-3.63954 4.05663,-4.63758 2.48361,-5.94307 -3.77009,-3.12889 -5.03895,-10.233938 -3.31266,-18.549402 1.2748,-6.140729 1.24855,-10.132613 -0.12476,-18.960278 -1.68789,-10.850287 -1.6493,-11.303856 1.30117,-15.294594 2.79236,-3.776861 2.86577,-4.305948 0.899,-6.479203 -2.79791,-3.091664 -2.78299,-10.437148 0.0244,-12.008244 1.98187,-1.109109 1.97455,-1.582517 -0.086,-5.567192 -5.12104,-9.903006 -1.57432,-21.3478466 7.7749,-25.0886638 4.26284,-1.7056496 6.70595,-1.8424268 12.79698,-0.7164388 5.339,0.9869697 10.07824,0.947617 16.29695,-0.1353236 10.25407,-1.78567061 26.46834,-0.73032469 33.42272,2.1754016 2.67062,1.1158544 6.02625,3.5169732 7.45694,5.3358196 2.5312,3.217884 2.70777,3.245879 6.55311,1.0389652 3.80966,-2.1864432 4.05319,-2.1592081 6.77017,0.7571218 1.55007,1.663832 3.40225,3.02515 4.11594,3.02515 0.71368,0 1.29761,1.150184 1.29761,2.555964 0,3.601747 -4.23587,4.914576 -6.38295,1.978276 -1.42521,-1.949098 -2.02364,-2.050816 -3.41114,-0.579814 -1.33335,1.413586 -1.33604,1.911203 -0.0135,2.396796 3.96899,1.456725 7.15793,5.764994 11.17355,15.095466 6.26298,14.552339 5.42288,25.896186 -2.68073,36.198278 -1.5045,1.913285 -2.73585,4.537553 -2.73585,5.831708 0,1.294154 -0.8732,3.077695 -1.94043,3.963422 -1.6394,1.360581 -1.29024,2.191372 2.25072,5.355213 2.79635,2.498544 3.90558,4.489022 3.33302,5.981072 -1.23058,3.206842 -4.15689,2.765909 -9.06777,-1.366321 l -4.28144,-3.602595 -8.75712,4.318326 c -11.12474,5.485858 -18.45294,6.559524 -25.28564,3.704637 -2.85381,-1.192392 -5.47173,-2.167985 -5.81762,-2.167985 -0.34589,0 -0.26525,2.278481 0.17923,5.063291 1.15265,7.221947 -0.39402,8.879797 -7.49367,8.032357 -3.24726,-0.3876 -7.72688,-1.08977 -9.95473,-1.56038 -3.93067,-0.8303 -3.90459,-0.77491 0.8806,1.87032 7.86909,4.34999 11.22024,11.08672 11.11838,22.35104 -0.0471,5.21149 -0.85467,12.67604 -1.79454,16.58789 -2.85652,11.88921 0.31881,17.42681 6.18016,10.77784 5.91936,-6.71477 7.23298,-15.18644 4.54918,-29.33807 -2.81265,-14.83105 7.06773,-24.98027 20.92237,-21.49164 4.01952,1.01213 7.21839,1.07551 9.74944,0.19318 9.17795,-3.19945 14.67844,4.42434 14.12799,19.58168 -0.19553,5.38397 -0.44631,12.9789 -0.55729,16.87764 -0.11098,3.89873 0.61096,13.16455 1.60431,20.59071 1.3682,10.22846 1.44996,15.30262 0.33726,20.92827 -2.8969,14.6461 -3.7126,16.86677 -6.6804,18.18676 -1.61885,0.72002 -3.12004,2.54127 -3.33598,4.04725 -0.35923,2.50524 -1.46822,2.76096 -13.03991,3.00677 -9.35257,0.19865 -13.4557,-0.26105 -15.75049,-1.76466 -3.76931,-2.46974 -7.38281,-11.02033 -7.38281,-17.46987 0,-8.58493 -7.96254,-7.85074 -9.67133,0.89175 -0.49222,2.51833 -1.30726,5.88731 -1.8112,7.48661 -0.69173,2.19527 -0.25484,3.11773 1.78289,3.76447 3.33259,1.05773 4.82695,4.56655 2.92224,6.86157 -1.45103,1.74839 -6.72471,1.18384 -6.72471,-0.71987 0,-2.31822 -3.82886,-2.27192 -8.85966,0.10721 -6.75379,3.19386 -13.31296,3.21561 -20.16988,0.067 z m 21.89752,-3.74295 c 4.00199,-2.29683 4.36039,-2.30191 6.79736,-0.0965 3.94401,3.56928 5.26563,2.76421 1.69742,-1.03399 -2.73661,-2.91299 -2.94845,-3.82342 -1.58557,-6.81458 0.86516,-1.89878 1.57302,-4.80756 1.57302,-6.46393 0,-4.28403 3.70375,-9.01327 7.05885,-9.01327 4.02984,0 7.79214,3.84524 7.80101,7.97298 0.0135,6.2497 2.75529,13.60903 5.81795,15.61577 2.09357,1.37175 6.32755,1.88869 14.11023,1.72276 11.64723,-0.24831 12.69745,-0.93656 9.7716,-6.40356 -1.60851,-3.00552 1.41537,-6.75605 5.4471,-6.75605 1.40607,0 3.29753,-1.36709 4.20325,-3.03798 2.14728,-3.9613 2.24373,-21.40311 0.20527,-37.12144 -1.10432,-8.51525 -1.21378,-14.94953 -0.34457,-20.25316 2.68692,-16.39473 -2.23511,-28.02898 -10.30292,-24.35305 -2.44621,1.11457 -5.07187,1.09845 -10.09918,-0.062 -7.77398,-1.79445 -14.80461,0.19223 -17.32122,4.89455 -0.82908,1.54915 -1.29697,9.62515 -1.12134,19.35481 0.2736,15.15612 0.0271,17.13732 -2.6712,21.47574 -2.92862,4.70861 -2.93362,4.80367 -0.33755,6.42493 3.17229,1.98114 3.46542,6.41603 0.49929,7.55423 -3.49383,1.34072 -11.13771,0.93165 -12.11417,-0.64829 -0.49896,-0.80733 -0.27222,-2.10283 0.50387,-2.87892 0.98128,-0.98128 0.5459,-2.58125 -1.42939,-5.25298 l -2.84046,-3.84192 2.50491,-13.65209 c 2.13075,-11.61293 2.25365,-14.59216 0.82279,-19.94583 -2.08013,-7.78302 -5.5855,-11.63853 -13.23899,-14.56143 -4.9248,-1.88079 -6.80492,-1.99366 -11.21252,-0.67311 -12.50768,3.74739 -17.80876,13.31459 -14.91999,26.92705 1.13783,5.36177 1.26015,8.81088 0.37314,10.52245 -0.73632,1.42082 -1.24824,13.39321 -1.15825,27.08866 0.1482,22.55308 0.38794,24.85148 2.95766,28.35443 6.26595,8.54146 18.58065,10.67887 28.5526,4.95576 z m 22.88449,-22.97224 c -1.79187,-1.79187 -0.84378,-4.5007 1.57523,-4.5007 3.1854,0 4.27354,1.13489 3.36308,3.50753 -0.76338,1.98932 -3.4099,2.52158 -4.93831,0.99317 z m -49.25137,-39.97238 c -0.90506,-1.09052 -0.99094,-2.49563 -0.22797,-3.72972 1.06581,-1.72391 1.50121,-1.70305 3.36605,0.16126 1.83856,1.83805 1.87086,2.36628 0.22799,3.72973 -1.47739,1.22613 -2.24516,1.18934 -3.36607,-0.16127 z m 47.00101,23.39947 c 0,-2.31316 -2.01505,-2.56763 -5.41779,-0.68418 l -3.35858,1.85901 4.38819,0.0478 c 2.4135,0.0263 4.38818,-0.52388 4.38818,-1.22267 z M 330.8017,102.18907 c 1.85654,0.0971 6.31152,0.62132 9.89996,1.16496 l 6.52445,0.98841 -0.91053,-6.071821 c -1.12589,-7.507991 0.76816,-8.648563 9.18295,-5.529823 7.21604,2.674454 12.98742,1.764009 23.34043,-3.681994 9.22436,-4.85229 10.1039,-4.888222 15.17641,-0.619988 6.81806,5.737013 6.56703,3.727161 -0.42055,-3.367087 -5.05086,-5.12797 -6.26491,-7.118932 -5.06975,-8.314083 1.19515,-1.195153 2.07798,-1.151098 3.68663,0.183965 1.16335,0.96549 2.25239,1.516954 2.4201,1.225477 0.97478,-1.694192 5.84618,-10.66528 7.95787,-14.655112 3.32524,-6.282699 3.25263,-17.82695 -0.15688,-24.942222 -1.44676,-3.019272 -3.26407,-7.185578 -4.03842,-9.258458 -0.77435,-2.072881 -3.23236,-4.807058 -5.46223,-6.075949 -4.82629,-2.746374 -5.20389,-5.942054 -1.0334,-8.745848 1.67089,-1.123326 2.63499,-2.461174 2.14246,-2.972996 -0.49253,-0.511822 -2.41186,0.06297 -4.26519,1.277326 -3.25397,2.132077 -3.5176,2.063347 -7.67545,-2.001086 -7.10196,-6.9423952 -9.07021,-7.286219 -40.49718,-7.0743108 l -29.02953,0.1957426 -3.03798,3.51905 c -4.41804,5.1176472 -4.03602,12.9408372 1.10847,22.7005762 5.7115,10.835423 5.59993,14.921364 -0.56158,20.56605 -5.37346,4.922744 -5.68178,6.444924 -3.43111,16.939467 1.11659,5.206495 1.10142,9.508155 -0.0589,16.701159 -1.60519,9.950481 -0.56874,16.313705 3.01831,18.530615 0.87668,0.54182 5.24374,0.5703 9.70456,0.0633 4.46082,-0.50702 9.62957,-0.8424 11.48611,-0.74531 z m 17.36816,-24.889496 c -0.66368,-3.641416 -0.97693,-17.726028 -0.44843,-20.163172 0.61055,-2.815487 4.99505,-5.329585 8.23356,-4.721164 0.83854,0.157536 1.84494,-0.938534 2.23646,-2.435714 0.39153,-1.497179 1.61513,-2.722143 2.71913,-2.722143 2.81582,0 4.27543,4.442294 1.94575,5.921877 -1.60234,1.017654 -1.57446,2.055226 0.18695,6.953454 2.45527,6.827862 0.6807,12.778676 -3.8107,12.778676 -1.47503,0 -3.33222,1.21519 -4.12709,2.700422 -1.37542,2.569993 -6.54551,3.828122 -6.93563,1.687764 z m 4.23521,-3.106872 c 0,-0.780508 2.12658,-2.307649 4.72574,-3.393647 3.07615,-1.285297 4.72574,-2.880154 4.72574,-4.568942 0,-7.724759 -6.12063,-14.009429 -9.93194,-10.198125 -2.17501,2.175025 -2.74012,19.579822 -0.6357,19.579822 0.61388,0 1.11616,-0.638598 1.11616,-1.419108 z M 310.54853,41.966968 c 0,-3.527642 -1.38226,-6.861485 -2.84488,-6.861485 -1.3925,0 -1.65007,7.206878 -0.30561,8.551336 1.68859,1.688594 3.15049,0.904464 3.15049,-1.689851 z M 417.97614,207.18627 c -3.66587,-1.81744 -6.78488,-3.30442 -6.93113,-3.30442 -0.14625,0 -0.59751,1.26803 -1.00279,2.81785 -1.09174,4.17478 -5.63655,2.82362 -5.71842,-1.70007 -0.0354,-1.95709 -0.74606,-4.3797 -1.57922,-5.38359 -2.64865,-3.19144 -3.32361,-8.66222 -1.99202,-16.14608 0.74744,-4.20078 0.82853,-10.97082 0.19217,-16.04381 -0.80311,-6.40228 -0.52085,-11.67816 1.04342,-19.50351 1.7274,-8.64138 1.84103,-11.86116 0.58443,-16.55946 -0.85795,-3.20778 -1.55991,-7.67656 -1.55991,-9.93063 0,-13.24513 15.75487,-21.95648 28.13291,-15.55555 4.66621,2.413 8.358,1.97572 11.08763,-1.31327 1.32588,-1.59759 1.24917,-2.46714 -0.38248,-4.3359 -3.30646,-3.786936 -5.47795,-12.264423 -4.34766,-16.973177 0.56338,-2.347024 1.13778,-9.831184 1.27644,-16.631465 l 0.25213,-12.364152 -5.79157,0.08755 c -4.81388,0.07278 -5.8597,0.564471 -6.19515,2.912674 -0.59065,4.13475 -6.99488,3.949981 -7.58687,-0.218891 -0.25591,-1.802144 0.41358,-3.368586 1.641,-3.839595 1.64304,-0.630488 1.23215,-1.503333 -1.98,-4.206185 -8.1154,-6.828659 -10.254,-19.192638 -5.14517,-29.74607 l 2.85995,-5.907862 -2.98215,-3.17435 c -3.50202,-3.7277358 -3.1695,-7.9775729 0.66745,-8.5303016 1.81599,-0.261602 3.49741,0.9564 5.12583,3.71308 2.62745,4.4479418 4.28234,5.1443246 5.38658,2.2667062 0.38743,-1.0096241 4.98355,-3.2385435 10.21361,-4.9531543 8.94955,-2.93400567 10.06844,-3.01194723 19.01224,-1.3243734 7.59962,1.4339436 10.60651,1.4625039 15.01199,0.142588 6.62457,-1.98476593 11.94531,-1.01698572 20.46982,3.7232154 l 6.38899,3.5527033 4.11649,-4.5069816 c 2.60691,-2.854187 4.88455,-4.21224437 6.21089,-3.70327542 1.15194,0.44203462 2.34852,0.80369932 2.6591,0.80369932 1.58391,0 0.27896,5.5952291 -1.46065,6.2627826 -2.506,0.9616422 -2.57198,2.4491475 -0.21325,4.8078765 3.49037,3.490373 4.93899,7.71127 4.93899,14.390987 0,5.302796 -0.75503,7.633518 -3.54814,10.952942 -3.35064,3.982026 -3.41359,4.315096 -1.13083,5.984293 1.4652,1.071377 2.08169,2.642198 1.56519,3.988144 -0.93363,2.433031 -5.68274,3.02244 -7.0128,0.870356 -0.45897,-0.742616 -1.72821,-1.350211 -2.82053,-1.350211 -1.54267,0 -1.3449,0.867206 0.88581,3.884399 5.64719,7.638242 -0.31806,13.395988 -6.25596,6.03834 -2.57759,-3.19389 -3.52096,-3.590498 -5.55818,-2.336757 -1.86816,1.149694 -2.51168,3.405092 -2.69678,9.451476 -0.64134,20.950564 -2.0652,30.866977 -4.87233,33.933004 -1.52979,1.670886 -2.06794,3.037975 -1.19587,3.037975 2.59478,0 1.7986,4.05786 -1.00199,5.1068 -2.54573,0.95348 -2.54523,1.02131 0.0315,4.19562 l 2.61907,3.22648 4.4483,-5.14592 c 2.68886,-3.11055 5.07961,-4.75574 6.04443,-4.15945 2.55683,1.58021 1.8536,5.77805 -1.65039,9.85168 l -3.24654,3.77432 9.50416,4.40224 c 13.02742,6.03418 13.88432,5.90502 13.24621,-1.9965 -0.13435,-1.66276 1.12015,-5.45065 2.78763,-8.41753 3.72207,-6.62255 11.9682,-10.46325 17.7474,-8.26601 8.82976,3.35707 11.05827,9.96678 7.14566,21.19385 -1.69059,4.85108 -1.67262,6.52292 0.14491,13.48302 1.52577,5.84281 1.97567,13.30972 1.70019,28.21753 -0.20603,11.14975 0.1199,22.84307 0.72421,25.98518 0.71653,3.72539 0.5485,7.04147 -0.48299,9.53172 -1.6975,4.09813 -7.73891,8.38724 -11.80225,8.379 -3.00868,-0.007 -10.16071,-4.22958 -15.0906,-8.91145 -1.98221,-1.88249 -6.37638,-4.85215 -9.76479,-6.59926 -3.38842,-1.74709 -6.95649,-4.13533 -7.92905,-5.30718 -2.17952,-2.62624 -4.13799,-2.75433 -4.13799,-0.27065 0,3.34693 -3.32481,5.04439 -6.02013,3.07353 -1.94441,-1.42179 -2.13194,-2.3157 -0.94939,-4.52533 1.84027,-3.43855 0.65151,-4.78559 -2.65948,-3.0136 -1.80264,0.96474 -2.5229,2.85579 -2.5229,6.62386 0,2.90051 -0.6323,5.66443 -1.40513,6.14207 -0.77282,0.47764 -1.056,1.96846 -0.62927,3.31293 1.07627,3.39103 -2.86449,7.14336 -5.83337,5.55446 -1.60479,-0.85886 -3.21975,-0.45845 -5.45666,1.35288 -3.99773,3.23716 -8.45689,3.27979 -12.36135,0.11815 -3.19535,-2.58744 -3.51276,-5.08712 -2.17434,-17.12342 l 0.75072,-6.75105 -1.17432,6.33399 c -1.50996,8.14445 -5.06302,14.10973 -10.35666,17.38796 -5.5766,3.45346 -11.88254,3.18888 -20.00796,-0.83947 z m 18.11343,-0.98708 c 1.84082,-0.93142 4.67664,-4.06399 6.30183,-6.96129 2.7878,-4.96992 2.91464,-6.45726 2.24312,-26.30348 -1.00539,-29.71322 -0.99153,-32.34748 0.21121,-40.16396 0.8933,-5.80554 0.59092,-7.97317 -1.80174,-12.91575 -3.42352,-7.07206 -3.51696,-8.27415 -0.81725,-10.51471 3.27766,-2.72023 1.29011,-3.0776 -3.4587,-0.62189 -4.00639,2.07178 -4.74036,2.07963 -9.2394,0.0988 -8.79047,-3.87026 -14.27424,-3.41648 -20.38745,1.68705 l -4.59646,3.8373 -0.48608,40.87327 c -0.44071,37.05907 -0.27099,41.11092 1.81876,43.42007 1.26767,1.40074 3.27396,2.57427 4.45845,2.60783 1.18447,0.0336 4.88778,1.52509 8.22955,3.31451 6.78703,3.63426 12.52454,4.17194 17.52416,1.64224 z m -28.77591,-23.47065 c -1.64116,-1.64114 -0.93212,-8.19414 1.06603,-9.85246 2.71499,-2.25325 4.78488,-0.60456 4.78488,3.81119 0,4.93559 -3.42263,8.46957 -5.85091,6.04127 z m 2.72262,-6.10408 c -0.43102,-1.0771 -0.75096,-0.75717 -0.81575,0.81576 -0.0586,1.42334 0.2605,2.22081 0.70916,1.77215 0.44866,-0.44867 0.49662,-1.61323 0.10653,-2.58791 z m 22.93139,-54.65541 c -1.79187,-1.79186 -0.84378,-4.5007 1.57523,-4.5007 3.18539,0 4.27354,1.13489 3.36308,3.50753 -0.76338,1.98933 -3.4099,2.52158 -4.93831,0.99317 z m 28.924,83.79411 c 0.99022,-1.19313 2.44691,-3.47161 3.2371,-5.06329 0.7902,-1.59168 2.78761,-3.088 4.43867,-3.32514 1.91314,-0.27479 3.24763,-1.62153 3.67929,-3.71308 0.37254,-1.80505 0.96474,-4.68945 1.31601,-6.40979 0.35127,-1.72033 2.19199,-3.95918 4.09048,-4.97521 3.02009,-1.61631 3.73903,-1.56013 5.74843,0.44927 1.90394,1.90394 2.01061,2.75462 0.62382,4.97523 -0.92005,1.47321 -1.10102,2.67859 -0.40215,2.67859 0.69887,0 1.65635,-1.21519 2.12775,-2.70043 1.10591,-3.48443 4.97494,-3.45454 8.1583,0.0631 1.37547,1.51989 4.37377,3.6522 6.66289,4.73844 2.28911,1.08626 7.18194,4.47169 10.87294,7.52316 3.69101,3.05149 8.18974,6.11118 9.99717,6.79933 4.18712,1.59415 10.01862,-0.69624 11.96195,-4.69822 2.56097,-5.27387 2.65827,-6.92791 0.68977,-11.7253 -1.52571,-3.71829 -1.73968,-8.38743 -1.00369,-21.90199 0.63188,-11.60288 0.38174,-20.73532 -0.77089,-28.1448 -1.38675,-8.91436 -1.37834,-12.33564 0.045,-18.26833 2.08691,-8.69921 0.59926,-13.36159 -4.93469,-15.46559 -8.79812,-3.34504 -18.03509,4.7975 -18.0449,15.90689 -0.007,7.90792 -3.42278,8.61005 -15.338,3.15277 -4.97123,-2.27688 -9.56592,-4.13975 -10.21048,-4.13975 -2.81383,0 -2.42069,-4.3074 0.73551,-8.05831 1.88857,-2.24445 3.17632,-4.84318 2.86167,-5.77496 -0.3181,-0.94196 -1.54579,0.18152 -2.76514,2.53041 -3.18196,6.1296 -5.61988,6.45489 -11.26035,1.50248 -6.54305,-5.74485 -13.69005,-5.96669 -19.04943,-0.59127 -3.49733,3.50779 -3.69021,4.32976 -3.31953,14.14652 0.21644,5.73229 -0.34215,16.91763 -1.24129,24.85632 -1.30005,11.47808 -1.28307,17.19432 0.0829,27.91318 1.3416,10.52743 1.36502,14.54803 0.10694,18.35997 -1.35205,4.09675 -1.26093,5.41476 0.56729,8.20497 2.51157,3.83312 7.63848,4.40594 10.33662,1.15487 z m 18.78345,-28.21043 c 0,-1.11392 0.91139,-2.02531 2.02531,-2.02531 1.11393,0 2.02532,0.91139 2.02532,2.02531 0,1.11393 -0.91139,2.02532 -2.02532,2.02532 -1.11392,0 -2.02531,-0.91139 -2.02531,-2.02532 z m 19.55194,-41.72662 c -2.05587,-1.51708 -2.30687,-2.34628 -1.0854,-3.58573 2.33438,-2.36873 8.83285,-0.42422 8.27433,2.47589 -0.58681,3.0471 -3.87562,3.55483 -7.18893,1.10984 z m -51.10393,-6.4427 c -0.54207,-9.55312 -0.21444,-12.59673 1.77634,-16.50153 2.38277,-4.67365 2.37808,-4.80787 -0.19596,-5.62484 -1.45033,-0.46032 -2.74954,-0.62957 -2.88716,-0.37611 -0.1376,0.25346 -1.38708,1.81236 -2.77662,3.46421 -2.27569,2.7053 -2.32854,3.30833 -0.53249,6.07595 2.85315,4.39656 3.79258,13.89238 2.21737,22.41343 -0.74688,4.04026 -0.91541,8.93633 -0.37452,10.88017 0.90332,3.24627 1.08344,3.03917 2.21058,-2.5417 0.67493,-3.34177 0.92804,-11.34708 0.56246,-17.78958 z m 12.60064,-26.23045 c 5.35652,-2.14326 5.38069,-2.1849 2.5831,-4.450243 l -2.824,-2.286744 3.64019,-4.326132 c 5.62628,-6.686436 12.68765,-4.837344 8.85747,2.319415 -1.28971,2.409829 -1.11741,2.805929 1.22051,2.805929 3.16815,0 4.8452,-4.832147 3.68696,-10.623323 -0.41501,-2.075106 0.16099,-6.430395 1.28003,-9.678419 1.37338,-3.986254 1.74361,-8.021364 1.13919,-12.415996 -0.67283,-4.892056 -0.35149,-7.340654 1.29268,-9.849966 2.91868,-4.454475 8.11649,-4.404999 11.07181,0.105384 1.56,2.380864 2.69008,3.011935 3.65881,2.043197 0.96874,-0.968735 0.43696,-2.428539 -1.72175,-4.726366 -1.80272,-1.918917 -2.78363,-4.210125 -2.31985,-5.418725 0.89037,-2.320273 7.00224,-2.867034 8.31447,-0.7438 0.45896,0.742616 1.50038,1.35021 2.31426,1.35021 0.81389,0 0.39203,-1.201965 -0.93745,-2.671034 -2.33541,-2.580593 -2.29678,-2.82899 1.14094,-7.336071 4.94045,-6.477262 4.94925,-15.593558 0.0213,-22.054442 -2.99362,-3.924783 -3.30919,-5.136993 -2.0543,-7.8911605 0.91668,-2.011892 0.97828,-3.2540408 0.16137,-3.2540408 -0.72669,0 -1.32126,0.5935881 -1.32126,1.3190845 0,0.7254965 -1.52023,2.3151773 -3.37829,3.5326241 -3.21748,2.1081767 -3.7477,2.0301287 -11.13924,-1.639687 -6.1397,-3.0482918 -9.17123,-3.7540187 -14.512,-3.3783174 -7.83491,0.551154 -12.63061,0.5627628 -25.65401,0.0621 -7.46879,-0.2871244 -10.79689,0.2654325 -15.86498,2.6340289 -3.52743,1.6485561 -6.41351,3.8803352 -6.41351,4.9595092 0,4.521984 -6.49064,0.620584 -8.52877,-5.1264735 -0.46086,-1.299578 -1.46461,-2.3628691 -2.23054,-2.3628691 -2.38103,0 -1.52856,3.3161354 1.30784,5.0874962 3.42662,2.1399584 3.42824,5.8054074 0.005,11.4199534 -3.78085,6.201148 -3.53587,14.918499 0.61845,22.007303 3.89375,6.644183 8.92661,9.140042 18.7589,9.302767 6.89187,0.114066 6.94334,0.146951 6.5199,4.1656 -0.23475,2.227848 -0.63555,8.303797 -0.89067,13.502109 -0.25511,5.198312 -0.88107,11.661914 -1.39101,14.36356 -1.32949,7.043541 2.92416,16.140849 8.93043,19.099549 5.74609,2.83053 7.91175,2.85328 14.65794,0.15399 z M 426.19499,15.570666 c -0.95222,-2.481479 1.57933,-4.201422 3.44215,-2.338599 1.44123,1.441228 0.40461,4.320675 -1.55548,4.320675 -0.61934,0 -1.46833,-0.891935 -1.88667,-1.982076 z m 45.02865,87.762844 c 0,-1.2045 -0.79203,-1.67901 -2.01757,-1.20873 -1.10965,0.42582 -1.68139,1.31814 -1.27052,1.98294 1.17822,1.90639 3.28809,1.40961 3.28809,-0.77421 z m -1.16223,-8.702521 c 1.75315,-1.421309 2.71343,-3.059974 2.13398,-3.641478 -0.57947,-0.581505 -2.69224,0.581383 -4.69507,2.584195 -4.15913,4.159143 -2.24149,4.950797 2.56109,1.057283 z M 422.61604,56.708858 c 0,-0.742616 -0.64345,-1.350211 -1.4299,-1.350211 -0.78644,0 -1.05438,0.607595 -0.59541,1.350211 0.45896,0.742616 1.10242,1.350211 1.4299,1.350211 0.32748,0 0.59541,-0.607595 0.59541,-1.350211 z M 585.31647,209.79022 c -8.6221,-2.17312 -16.97893,-5.47671 -22.59523,-8.93224 -6.62698,-4.07737 -11.0276,-4.46719 -11.34185,-1.00468 -0.10005,1.10177 -0.2519,2.76272 -0.33755,3.69099 -0.22072,2.39185 -5.48264,2.10132 -6.42513,-0.35474 -0.43108,-1.12339 -0.16644,-2.79427 0.58811,-3.71308 0.75454,-0.91882 1.582,-3.18956 1.83881,-5.0461 0.31688,-2.29081 1.44319,-3.51418 3.50491,-3.80699 4.31325,-0.61258 3.79075,-3.08927 -2.17461,-10.30818 -7.67244,-9.28473 -10.2233,-20.55603 -7.02049,-31.02103 3.4874,-11.39496 4.55188,-19.56618 2.82063,-21.6522 -2.27844,-2.74537 0.37216,-6.12299 4.80505,-6.12299 1.73977,0 5.15905,-1.74502 7.59838,-3.87782 2.43934,-2.1328 6.56175,-5.1685 9.16091,-6.746 l 4.72574,-2.86819 -4.1736,-0.005 c -2.29548,-0.003 -7.15624,-0.90986 -10.80169,-2.01575 -3.64544,-1.10588 -8.48125,-2.01728 -10.74623,-2.02531 -4.6567,-0.0166 -7.35865,-2.10419 -7.35865,-5.685557 0,-1.530238 -1.00016,-2.430379 -2.70042,-2.430379 -1.7494,0 -2.70043,0.900141 -2.70043,2.555964 0,2.724292 -2.29051,4.175772 -5.06329,3.208572 -2.0928,-0.73001 -2.20262,-4.709584 -0.18565,-6.726562 0.82615,-0.82616 1.17085,-2.314767 0.76597,-3.308016 -0.4898,-1.201597 -1.04644,-0.784367 -1.66344,1.246837 -1.46898,4.835878 -10.05612,5.820932 -10.05612,1.153564 0,-0.940649 1.5162,-3.134659 3.36932,-4.875578 l 3.36932,-3.165309 -3.22199,-5.50887 c -4.30497,-7.360559 -7.56728,-18.757795 -7.56728,-26.43714 0,-7.347605 3.23671,-19.174334 6.8798,-25.138272 1.41442,-2.315503 2.57168,-5.866057 2.57168,-7.89012 0,-2.544582 0.83324,-3.898012 2.70042,-4.386291 3.47753,-0.909395 3.41455,-1.256701 -0.90121,-4.968955 -2.35927,-2.0293516 -3.30539,-3.8700131 -2.74279,-5.3360794 1.306,-3.4034089 6.09068,-2.6770415 9.71598,1.4749941 l 3.24202,3.7130803 4.45692,-2.5740395 c 15.12638,-8.73603779 23.58461,-10.4028513 35.38351,-6.9728162 4.21687,1.2258766 9.61638,3.4174466 11.99892,4.8701556 2.38253,1.4527089 5.42535,2.6435603 6.7618,2.6463362 1.33646,0.00278 4.22253,0.9320429 6.41351,2.0650369 3.74293,1.935546 3.98358,1.903489 3.98358,-0.530648 0,-3.1160441 3.12831,-4.6119992 5.2363,-2.5039982 1.97238,1.9723732 1.93178,5.4183842 -0.0876,7.4377862 -1.23635,1.236355 -0.97787,2.300397 1.13161,4.658228 8.08283,9.034464 13.04971,30.320618 10.22135,43.804912 -1.45639,6.943361 -11.35241,26.135625 -14.03097,27.211559 -1.9599,0.787261 -1.21059,3.77557 1.57996,6.300985 1.48523,1.344116 2.70042,3.48232 2.70042,4.75157 0,1.48759 2.13694,3.12382 6.01303,4.60411 8.65132,3.30397 14.25157,10.15103 14.1972,17.35797 -0.0236,3.13027 -0.89854,6.82095 -1.94426,8.2015 -1.2695,1.67595 -1.68409,4.59248 -1.2476,8.77638 0.51073,4.89554 0.0663,7.00466 -2.03143,9.6418 -2.38269,2.99531 -3.7202,3.38123 -11.87403,3.42613 -14.29807,0.0787 -26.0665,7.39144 -26.0665,16.19726 0,6.6288 4.08838,9.41585 13.72656,9.35744 5.53551,-0.0336 8.41342,-0.66016 9.25016,-2.01403 1.74266,-2.8197 -0.60119,-4.52146 -3.84004,-2.78809 -1.51614,0.81141 -4.40046,1.4753 -6.40961,1.4753 -6.73318,0 -9.71674,-8.21976 -4.64844,-12.80652 2.2527,-2.03867 4.08071,-2.27962 11.51564,-1.5179 5.03778,0.51615 11.08681,0.2999 14.06826,-0.50292 6.54307,-1.76187 11.8699,0.0371 12.95902,4.37652 1.24897,4.97629 -1.6953,29.26418 -3.968,32.73274 -1.12817,1.72182 -5.56649,4.8124 -9.86293,6.86797 -6.31977,3.02361 -10.00364,3.80481 -19.28851,4.09037 -6.31223,0.19412 -12.69198,0.0467 -14.17721,-0.32767 z m 32.70527,-6.09559 c 8.53759,-4.24951 10.67054,-8.54762 11.73354,-23.64425 0.7428,-10.54912 0.5372,-12.68739 -1.40683,-14.63143 -1.57251,-1.5725 -3.35939,-1.99821 -5.77673,-1.37625 -7.44356,1.91516 -13.74,2.25786 -17.48669,0.95176 -5.31506,-1.85284 -10.31708,0.65469 -10.31708,5.17198 0,2.62008 0.78223,3.42594 3.64631,3.75645 2.00547,0.23144 4.84753,-0.22208 6.31568,-1.00781 4.00233,-2.14199 7.13486,-0.36819 6.65114,3.7662 -1.20987,10.34056 -24.1303,8.58565 -28.21593,-2.16036 -2.23238,-5.87165 1.37849,-11.63588 11.2574,-17.97079 6.84101,-4.38683 9.21666,-5.25068 12.4973,-4.54435 9.91542,2.13485 16.89037,-1.18612 16.85696,-8.02605 -0.0114,-2.32809 -0.60966,-5.14429 -1.32954,-6.25822 -0.87257,-1.35021 -1.31575,-1.46272 -1.32954,-0.33755 -0.0255,2.07869 -4.91871,2.24346 -6.1767,0.20799 -0.50301,-0.81388 0.0644,-2.45873 1.26088,-3.65522 1.69916,-1.69916 2.53228,-1.81859 3.80534,-0.54554 2.35034,2.35035 3.1649,2.05104 4.92371,-1.80916 5.69405,-12.49707 -3.82414,-22.46046 -23.86023,-24.97628 -16.14451,-2.02718 -29.54318,2.10158 -42.66397,13.14675 -3.26116,2.74527 -6.77384,4.4669 -9.11392,4.4669 -2.09418,0 -3.8076,0.6076 -3.8076,1.35021 0,0.74262 0.6876,1.35021 1.528,1.35021 1.59106,0 1.22083,3.79761 -1.64538,16.87764 -4.16607,19.01192 -3.13533,24.95553 6.36148,36.68294 4.19779,5.18375 6.06637,11.24955 3.46545,11.24955 -0.60068,0 -2.27157,0.90066 -3.71308,2.00147 -2.45027,1.87113 -2.34067,1.94916 1.68301,1.19828 3.14267,-0.58647 5.37774,-0.0386 8.2837,2.03067 5.14713,3.66506 15.66399,8.18272 22.51784,9.67281 9.68616,2.10587 26.90604,0.62002 34.05548,-2.93855 z m -59.93115,-16.78118 c -0.97445,-2.53938 1.41495,-5.30857 3.47954,-4.03258 2.22556,1.37547 1.75991,6.14866 -0.59983,6.14866 -1.13724,0 -2.43311,-0.95224 -2.87971,-2.11608 z m 28.46644,-86.84124 c 10.1858,-4.628017 13.59988,-4.491847 15.93611,0.63561 0.81655,1.79213 1.99471,3.25842 2.61812,3.25842 2.21341,0 1.08447,-2.87264 -2.28065,-5.803161 l -3.41412,-2.973211 3.18801,-4.725738 c 7.87996,-11.680811 12.12367,-20.045198 13.5006,-26.609756 3.16557,-15.09195 -3.67789,-38.071244 -13.83018,-46.439616 -2.61069,-2.151956 -5.57315,-3.912649 -6.58321,-3.912649 -1.01008,0 -6.7957,-2.224593 -12.85693,-4.9435408 -14.48309,-6.4968221 -26.17736,-6.9438103 -36.91643,-1.4110498 -3.84618,1.9815502 -7.37571,4.2219676 -7.8434,4.9787046 -1.54147,2.494145 -6.91627,1.434474 -10.14245,-1.999641 -3.27156,-3.4824226 -5.40084,-4.3167736 -5.40084,-2.1163042 0,0.6925728 1.15906,1.6270946 2.57569,2.0767152 3.9923,1.267109 4.76514,5.073012 1.55756,7.670354 -1.53068,1.239463 -2.78304,3.236793 -2.78304,4.438512 0,1.20172 -1.94152,5.965086 -4.31451,10.585259 -3.97692,7.743052 -4.31067,9.403932 -4.26545,21.227318 0.0502,13.143247 1.40299,17.902484 7.79157,27.412496 2.50822,3.733727 2.50345,3.835756 -0.3602,7.70904 -3.98371,5.388262 -3.65427,6.843553 0.52813,2.33302 4.06852,-4.387716 6.02007,-4.670736 6.9769,-1.011812 0.53383,2.041383 1.46,2.497425 3.85248,1.896952 2.6485,-0.664733 3.4724,-0.01815 5.17785,4.063583 1.63927,3.923305 2.75338,4.858035 5.81015,4.874595 2.0801,0.0112 6.51616,0.91875 9.85793,2.01662 9.0918,2.9869 20.5017,1.82112 31.62031,-3.23072 z M 536.48186,89.684328 c -0.44955,-1.171508 0.0774,-3.024787 1.17103,-4.118398 1.75103,-1.751038 2.19402,-1.740594 3.71121,0.08751 0.94755,1.141737 1.37013,2.995016 0.93905,4.118397 -1.02834,2.679784 -4.78103,2.623375 -5.82129,-0.08751 z m 25.5216,-9.573183 c -1.85837,-0.748196 -9.76716,-15.849557 -9.76716,-18.649787 0,-2.400585 3.17738,-4.790463 4.86951,-3.662607 0.77187,0.514483 1.91024,2.150613 2.52969,3.635845 1.00792,2.416621 1.2111,2.27472 1.93324,-1.350211 1.14612,-5.75303 6.77116,-6.314322 10.89575,-1.087226 6.95068,8.808596 -1.0278,24.911913 -10.46103,21.113986 z m 8.42601,-5.782494 c 2.68691,-5.195902 2.61708,-10.715641 -0.17459,-13.800396 -3.38647,-3.742005 -5.86668,-3.073426 -5.86668,1.581446 0,5.021267 -3.94175,5.565282 -7.33739,1.012658 -2.46175,-3.300554 -2.45394,-3.255689 1.14829,6.594204 3.41109,9.327193 8.75081,11.340813 12.23037,4.612088 z m 4.21076,-15.661919 c -1.25711,-1.257104 -2.09642,-3.268211 -1.86515,-4.469123 0.63509,-3.297783 4.20717,-3.325835 6.24615,-0.04905 1.52346,2.448289 1.50082,3.207644 -0.14466,4.853123 -1.70079,1.700792 -2.24351,1.657882 -4.23634,-0.334946 z m 24.85345,43.322928 c 0,-3.080942 -2.47037,-3.752439 -6.78262,-1.84365 -5.34936,2.36786 -5.06078,3.08511 1.38878,3.45173 3.90001,0.22169 5.39384,-0.22366 5.39384,-1.60808 z m -110.1149,15.36104 c -1.27599,-2.06459 1.4932,-4.454 4.03258,-3.47954 1.16384,0.44661 2.11608,1.74248 2.11608,2.87971 0,2.35974 -4.77319,2.82539 -6.14866,0.59983 z m 56.7741,0.10556 c -0.46306,-0.74926 -0.44674,-2.60746 0.0363,-4.12934 1.34714,-4.24445 6.60702,-2.93596 7.14948,1.77855 0.36556,3.177 -0.0616,3.71308 -2.95829,3.71308 -1.86203,0 -3.7644,-0.61303 -4.22747,-1.36229 z m 4.73321,-2.68833 c 0,-0.74262 -0.6076,-1.35021 -1.35021,-1.35021 -0.74262,0 -1.35021,0.60759 -1.35021,1.35021 0,0.74261 0.60759,1.35021 1.35021,1.35021 0.74261,0 1.35021,-0.6076 1.35021,-1.35021 z M 42.82532,106.54301 c -2.808944,-0.66143 -6.889847,-2.12445 -9.068676,-3.25117 -2.178829,-1.12671 -5.956552,-1.8916 -8.394939,-1.69975 -4.031681,0.31722 -4.428612,0.0123 -4.380208,-3.364247 0.07642,-5.331077 -2.38003,-4.595926 -8.142963,2.436977 -3.5829837,4.37256 -5.8698826,6.03107 -7.9125692,5.73839 -4.77662582,-0.6844 -3.97974673,-4.18595 2.4606249,-10.812183 3.3635363,-3.460603 6.1155203,-7.300358 6.1155203,-8.53279 0,-1.232432 -2.049474,-4.635134 -4.5543855,-7.561561 C 6.4428124,76.570251 3.3217664,70.769094 2.0120666,66.605219 -0.00779012,60.183569 -0.12457746,58.08957 1.2425856,52.808405 2.1290708,49.384034 3.6205111,42.632909 4.5568977,37.805905 5.4932842,32.978901 6.9776316,27.70239 7.8554478,26.080324 8.7332639,24.458259 9.451477,21.693702 9.451477,19.936864 c 0,-3.855332 2.326949,-6.434755 5.804926,-6.434755 1.41043,0 5.997772,-2.108492 10.194093,-4.6855375 19.609658,-12.0426885 45.17468,-11.1907412 51.692666,1.7226435 1.213548,2.404272 4.251523,5.737487 6.751055,7.407143 12.31045,8.223228 11.688048,24.846353 -1.213202,32.402194 -2.577626,1.50963 -7.462218,2.546677 -13.019698,2.764209 -4.891906,0.191479 -9.625165,1.078934 -10.518353,1.972121 -0.893186,0.893186 -3.021444,1.623976 -4.729461,1.623976 -3.571551,0 -4.00452,1.623636 -1.080168,4.050632 2.870936,2.382665 2.524523,4.461143 -1.350211,8.101266 -1.856541,1.744128 -3.375528,3.955245 -3.375528,4.913593 0,2.580688 5.18179,4.88561 8.890761,3.954718 1.781119,-0.447034 5.444298,0.108894 8.1404,1.235399 6.038793,2.523169 5.31266,2.58978 8.447344,-0.774907 3.290175,-3.531588 7.457896,-2.885351 8.04603,1.247599 0.314815,2.212269 -0.346832,3.329558 -2.269469,3.832338 -2.563707,0.670425 -4.987621,4.207509 -3.739004,5.456124 0.316473,0.316473 1.769276,-0.170179 3.228453,-1.08145 3.932402,-2.455826 7.061393,-0.647799 7.061393,4.080289 0,4.523362 -3.914201,7.544657 -8.291423,6.399987 -1.612164,-0.421591 -3.968016,0.570679 -6.144988,2.588224 -3.791606,3.51395 -14.917126,7.38991 -20.576587,7.16857 -1.907409,-0.0746 -5.766242,-0.6768 -8.575186,-1.33823 z m 23.19753,-5.20705 c 6.463241,-3.297301 8.253904,-6.133231 7.235732,-11.459459 -0.611434,-3.198505 -0.0296,-4.510524 3.110665,-7.014485 2.124527,-1.694038 3.428428,-3.514417 2.897559,-4.045286 -0.530869,-0.530869 -2.369069,0.353635 -4.084889,1.965564 -3.626371,3.406798 -5.974889,3.617426 -9.617196,0.862525 -1.44803,-1.095236 -5.483477,-1.982376 -9.017481,-1.982376 -10.270987,0 -13.580179,-5.283899 -7.264538,-11.599539 3.419768,-3.419768 4.352015,-5.953203 2.190643,-5.953203 -0.651688,0 -1.941274,0.911393 -2.865749,2.025317 -2.188913,2.637479 -4.898363,2.581862 -5.935873,-0.121846 -1.105984,-2.882149 0.133795,-4.603893 3.315136,-4.603893 1.720596,0 2.620737,-0.927509 2.620737,-2.700421 0,-1.990303 0.900141,-2.700422 3.423032,-2.700422 1.882668,0 4.768744,-0.86344 6.413502,-1.918754 1.787462,-1.146877 6.397689,-1.907306 11.46022,-1.890295 5.646339,0.01897 9.606167,-0.716151 11.878807,-2.205241 4.224273,-2.76785 8.669204,-9.866429 8.675933,-13.855512 0.009,-5.331327 -4.252491,-12.16895 -9.211863,-14.780592 C 78.045913,17.672207 76.096713,15.481143 75.39738,12.782324 73.726843,6.3355174 67.528299,3.542263 54.709148,3.4595727 43.311659,3.3860528 34.061217,5.9308615 26.484293,11.224266 c -2.1425,1.496798 -6.086064,3.474546 -8.763476,4.394995 -3.673702,1.262959 -5.062106,2.616397 -5.659112,5.516593 -0.435101,2.113676 -1.504195,5.170191 -2.3757657,6.792258 -0.8715703,1.622065 -1.5846733,4.831104 -1.5846733,7.1312 0,2.300095 -1.2699277,7.951713 -2.8220617,12.559151 -1.9338077,5.74042 -2.5606446,10.011973 -1.9915168,13.571102 1.0175491,6.363403 6.2231533,16.895046 10.0684845,20.369908 4.485796,4.053623 3.566039,8.260517 -3.229589,14.771874 -6.2998672,6.036333 -7.2623803,7.692893 -4.3881862,7.552393 0.92827,-0.0454 3.5328087,-2.62766 5.7878632,-5.7384 2.255055,-3.110742 5.444928,-5.850051 7.088608,-6.087355 1.903474,-0.274811 2.988508,-1.377804 2.988508,-3.037974 0,-1.706373 0.932572,-2.606514 2.700422,-2.606514 2.694478,0 3.988126,4.668014 1.559101,5.62588 -0.627728,0.247538 -1.529067,2.034777 -2.002976,3.971642 -0.768718,3.141745 -0.518677,3.45601 2.318254,2.913696 1.748949,-0.334334 5.060923,0.364832 7.359941,1.553695 10.370894,5.363 22.999828,5.69639 32.484732,0.85755 z m 2.387841,-80.632727 c -1.557375,-1.557373 -0.97722,-5.851857 0.787623,-5.830237 3.093548,0.0379 5.466795,2.381132 4.627311,4.568792 -0.84523,2.202634 -3.788169,2.888212 -5.414934,1.261445 z m 15.074488,71.314748 c 0.346225,-2.434322 -0.111096,-3.037845 -2.025317,-2.672835 -1.373578,0.261916 -2.671283,1.868988 -2.91972,3.615766 -0.346226,2.434322 0.111095,3.037845 2.025316,2.672835 1.373578,-0.261916 2.671283,-1.868989 2.919721,-3.615766 z M 4.3206752,14.582278 C 2.1850739,12.446677 2.2702278,10.139158 4.5546017,8.2432964 8.3569077,5.0876628 13.81529,10.546046 10.659657,14.348351 8.7637951,16.632726 6.4562765,16.717879 4.3206752,14.582278 Z M 8.2025318,11.78059 C 8.0355196,10.166139 6.1835771,10.478804 5.6033757,12.219409 5.3063292,13.110548 5.7924052,13.596624 6.6835445,13.299577 7.5746837,13.002531 8.258228,12.318987 8.2025318,11.78059 Z"
         id="path230" />
    </g>
  </g>
</svg>
